<?xml version="1.0" encoding="UTF-8" standalone="no"?>
<svg width="25px" height="25px" viewBox="0 0 25 25" version="1.1" xmlns="http://www.w3.org/2000/svg" xmlns:xlink="http://www.w3.org/1999/xlink" xmlns:sketch="http://www.bohemiancoding.com/sketch/ns">
    <!-- Generator: Sketch 3.0.4 (8053) - http://www.bohemiancoding.com/sketch -->
    <title>card-highlight-bg</title>
    <desc>Created with Sketch.</desc>
    <defs></defs>
    <g id="Page-1" stroke="none" stroke-width="1" fill="none" fill-rule="evenodd" sketch:type="MSPage">
        <rect id="Rectangle-1" fill-opacity="0.5" sketch:type="MSShapeGroup" x="0" y="0" width="25" height="25"></rect>
        <g id="Group" sketch:type="MSLayerGroup" fill="#E7E7E7">
            <path d="M-11.8535534,-11.1464466 L35.6490788,36.3561855 L36.0026321,36.7097389 L36.7097389,36.0026321 L36.3561855,35.6490788 L-11.1464466,-11.8535534 L-11.5,-12.2071068 L-12.2071068,-11.5 L-11.8535534,-11.1464466 Z M-11.8535534,-6.14644661 L35.6490788,41.3561855 L36.0026321,41.7097389 L36.7097389,41.0026321 L36.3561855,40.6490788 L-11.1464466,-6.85355339 L-11.5,-7.20710678 L-12.2071068,-6.5 L-11.8535534,-6.14644661 Z M-11.8535534,-1.14644661 L35.6490788,46.3561855 L36.0026321,46.7097389 L36.7097389,46.0026321 L36.3561855,45.6490788 L-11.1464466,-1.85355339 L-11.5,-2.20710678 L-12.2071068,-1.5 L-11.8535534,-1.14644661 Z M-11.8535534,3.85355339 L35.6490788,51.3561855 L36.0026321,51.7097389 L36.7097389,51.0026321 L36.3561855,50.6490788 L-11.1464466,3.14644661 L-11.5,2.79289322 L-12.2071068,3.5 L-11.8535534,3.85355339 Z M-11.8535534,8.85355339 L35.6490788,56.3561855 L36.0026321,56.7097389 L36.7097389,56.0026321 L36.3561855,55.6490788 L-11.1464466,8.14644661 L-11.5,7.79289322 L-12.2071068,8.5 L-11.8535534,8.85355339 Z M-11.8535534,-16.1464466 L35.6490788,31.3561855 L36.0026321,31.7097389 L36.7097389,31.0026321 L36.3561855,30.6490788 L-11.1464466,-16.8535534 L-11.5,-17.2071068 L-12.2071068,-16.5 L-11.8535534,-16.1464466 Z M-11.8535534,-21.1464466 L35.6490788,26.3561855 L36.0026321,26.7097389 L36.7097389,26.0026321 L36.3561855,25.6490788 L-11.1464466,-21.8535534 L-11.5,-22.2071068 L-12.2071068,-21.5 L-11.8535534,-21.1464466 Z M-11.8535534,-26.1464466 L35.6490788,21.3561855 L36.0026321,21.7097389 L36.7097389,21.0026321 L36.3561855,20.6490788 L-11.1464466,-26.8535534 L-11.5,-27.2071068 L-12.2071068,-26.5 L-11.8535534,-26.1464466 Z M-11.8535534,-31.1464466 L35.6490788,16.3561855 L36.0026321,16.7097389 L36.7097389,16.0026321 L36.3561855,15.6490788 L-11.1464466,-31.8535534 L-11.5,-32.2071068 L-12.2071068,-31.5 L-11.8535534,-31.1464466 Z" id="Line" sketch:type="MSShapeGroup"></path>
        </g>
    </g>
</svg>