<?xml version="1.0" encoding="UTF-8" standalone="no"?>
<svg width="20px" height="20px" viewBox="0 0 20 20" version="1.1" xmlns="http://www.w3.org/2000/svg" xmlns:xlink="http://www.w3.org/1999/xlink" xmlns:sketch="http://www.bohemiancoding.com/sketch/ns">
    <!-- Generator: Sketch 3.0.4 (8053) - http://www.bohemiancoding.com/sketch -->
    <title>dislike-button</title>
    <desc>Created with Sketch.</desc>
    <defs></defs>
    <g id="Page-1" stroke="none" stroke-width="1" fill="none" fill-rule="evenodd" sketch:type="MSPage">
        <g id="dislike-button" sketch:type="MSLayerGroup" transform="translate(0.000000, 3.000000)" fill="#343434">
            <g id="Page-1" sketch:type="MSShapeGroup">
                <path d="M7.27201127,6.27098158 C6.99573225,6.37050218 6.75418942,6.49112648 6.56249997,6.63681048 C6.24763621,6.87610698 6.02160117,7.29623328 5.86905187,7.82431048 L5.86905187,7.82431048 L5,7.82431048 L5,7.04177148 C5,6.49019858 4.55628335,6.04306048 4.00019251,6.04306048 L0.999807492,6.04306048 C0.447629061,6.04306048 1.77635684e-15,6.48852318 1.77635684e-15,7.04177148 L1.77635684e-15,14.5443495 C1.77635684e-15,15.0959224 0.443716645,15.5430605 0.999807492,15.5430605 L4.00019251,15.5430605 C4.55237094,15.5430605 5,15.0975978 5,14.5443495 L5,13.7618105 L6.13920029,13.7618105 C6.26676336,14.1504131 6.41052567,14.4599345 6.56249996,14.6524353 C7.49999989,15.839935 13.0141159,15.5760461 13.0141159,15.5760461 C13.1266824,15.5741764 13.2370614,15.5629285 13.3445162,15.5430605 L13.3445162,15.5430605 L16.9366027,15.5430605 C17.5929364,15.5430605 18.125,15.015971 18.125,14.3555605 C18.125,13.6997224 17.5856185,13.1680605 16.9366027,13.1680605 L15.9683014,13.1680605 L17.5616027,13.1680605 C18.2179364,13.1680605 18.75,12.640971 18.75,11.9805605 C18.75,11.3247224 18.2106185,10.7930605 17.5616027,10.7930605 L16.2808014,10.7930605 L18.1866027,10.7930605 C18.8429364,10.7930605 19.375,10.265971 19.375,9.60556048 C19.375,8.94972238 18.8356185,8.41806048 18.1866027,8.41806048 L16.5933014,8.41806048 L18.8116027,8.41806048 C19.4679364,8.41806048 20,7.89097098 20,7.23056048 C20,6.57472238 19.4606185,6.04306048 18.8116027,6.04306048 L13.6883973,6.04306048 C13.6572218,6.04306048 13.6263267,6.04424968 13.5957556,6.04658598 C13.453862,5.99518008 13.3050278,5.95889448 13.1511202,5.93984878 C13.7004881,3.77791938 14.2105263,2.32431039 14.2105263,2.32431039 C14.2105263,2.32431039 14.7368421,0.824310512 13.4375,0.105560482 C12.1052632,-0.175689518 11.8914474,0.730560482 11.5789474,1.32431048 C11.2664474,1.91806048 10.625,3.37118548 10,3.96493548 C9.4484335,4.48892365 7.6799646,5.93775768 7.27201127,6.27098158 L7.27201127,6.27098158 Z" id="Rectangle-39" transform="translate(10.000000, 8.052780) rotate(180.000000) translate(-10.000000, -8.052780) "></path>
            </g>
        </g>
    </g>
</svg>