<?xml version="1.0" encoding="UTF-8" standalone="no"?>
<svg width="167px" height="24px" viewBox="0 0 167 24" version="1.1" xmlns="http://www.w3.org/2000/svg" xmlns:xlink="http://www.w3.org/1999/xlink" xmlns:sketch="http://www.bohemiancoding.com/sketch/ns">
    <!-- Generator: Sketch 3.1.1 (8761) - http://www.bohemiancoding.com/sketch -->
    <title>footer_logo</title>
    <desc>Created with Sketch.</desc>
    <defs></defs>
    <g id="Page-1" stroke="none" stroke-width="1" fill="none" fill-rule="evenodd" sketch:type="MSPage">
        <g id="Imported-Layers" sketch:type="MSLayerGroup" fill="#999999">
            <path d="M166.769528,19.0073846 L158.134827,19.0073846 L158.134827,17.7895385 L165.089668,17.7895385 L165.089668,8.68 L148.583166,8.68 L148.583166,17.7895385 L155.62428,17.7895385 L155.62428,19.0073846 L146.812103,19.0073846 L146.812103,21.2535385 L155.62428,21.2535385 L155.62428,24.1766154 L158.134827,24.1766154 L158.134827,21.2535385 L166.769528,21.2535385 L166.769528,19.0073846 L166.769528,19.0073846 Z M151.006823,10.8375385 L162.666011,10.8375385 L162.666011,12.072 L151.006823,12.072 L151.006823,10.8375385 Z M151.006823,14.3163077 L162.666011,14.3163077 L162.666011,15.6338462 L151.006823,15.6338462 L151.006823,14.3163077 Z" id="Fill-2" sketch:type="MSShapeGroup"></path>
            <path d="M129.017668,7.90769231 L127.250919,4.40615385 L124.553037,4.40615385 L126.31917,7.90769231 L129.017668,7.90769231" id="Fill-3" sketch:type="MSShapeGroup"></path>
            <path d="M125.428708,12.0473846 L129.108871,12.0473846 L129.108871,9.62830769 L125.428708,9.62830769 L125.428708,12.0473846 Z" id="Fill-4" sketch:type="MSShapeGroup"></path>
            <path d="M124.37741,24.1766154 L126.888572,24.1766154 L128.86176,13.7378462 L126.350598,13.7378462 L124.37741,24.1766154" id="Fill-5" sketch:type="MSShapeGroup"></path>
            <path d="M143.691483,13.1070769 L143.691483,10.6873846 L138.354878,10.6873846 L138.354878,6.82769231 L142.192797,6.82769231 L142.192797,4.40615385 L131.962044,4.40615385 L131.962044,6.82769231 L135.798114,6.82769231 L135.798114,10.6873846 L130.462125,10.6873846 L130.462125,13.1070769 L135.597838,13.1070769 L130.151542,24.1766154 L132.835251,24.1766154 L137.076804,15.5550769 L141.318974,24.1766154 L144.002066,24.1766154 L138.557004,13.1070769 L143.691483,13.1070769" id="Fill-6" sketch:type="MSShapeGroup"></path>
            <path d="M151.882494,8.00430769 L154.218646,8.00430769 L154.218646,6.66215385 L159.370996,6.66215385 L159.370996,8.00430769 L161.706531,8.00430769 L161.706531,6.66215385 L166.434295,6.66215385 L166.434295,4.50584615 L161.706531,4.50584615 L161.706531,3.11323077 L159.370996,3.11323077 L159.370996,4.50584615 L154.218646,4.50584615 L154.218646,3.11323077 L151.882494,3.11323077 L151.882494,4.50584615 L147.157196,4.50584615 L147.157196,6.66215385 L151.882494,6.66215385 L151.882494,8.00430769" id="Fill-7" sketch:type="MSShapeGroup"></path>
            <path d="M11.6628856,21.3064615 L8.9311107,21.3064615 L8.9311107,13.9661538 L5.75194834,13.9661538 L5.75194834,21.3064615 L3.02078967,21.3064615 L3.02078967,5.22461538 L-0.15898893,5.22461538 L-0.15898893,21.3064615 L-0.159605166,21.3064615 L-0.159605166,24.2763077 L14.842048,24.2763077 L14.842048,8.29723077 L11.6628856,8.29723077 L11.6628856,21.3064615" id="Fill-8" sketch:type="MSShapeGroup"></path>
            <path d="M114.673539,8.29723077 L111.846863,8.29723077 L111.846863,5.22461538 L108.667701,5.22461538 L108.667701,8.29723077 L105.84041,8.29723077 L105.84041,11.4732308 L108.667701,11.4732308 L108.667701,24.2763077 L111.846863,24.2763077 L111.846863,11.4732308 L114.673539,11.4732308 L114.673539,8.29723077" id="Fill-9" sketch:type="MSShapeGroup"></path>
            <path d="M45.1602509,8.29723077 L43.2240369,24.2763077 L55.6368819,24.2763077 L55.6368819,21.3064615 L46.7643137,21.3064615 L47.9554982,11.4732308 L55.6368819,11.4732308 L55.6368819,8.29723077 L45.1602509,8.29723077" id="Fill-10" sketch:type="MSShapeGroup"></path>
            <path d="M26.9042546,8.29723077 L20.7437417,8.29723077 L18.8081439,24.2763077 L21.9879225,24.2763077 L22.5400701,19.7187692 L27.8286089,19.7187692 L28.3807565,24.2763077 L31.5605351,24.2763077 L29.6249373,8.29723077 L26.9042546,8.29723077 L26.9042546,8.29723077 Z M22.9252177,16.5427692 L23.5389889,11.4732308 L26.82969,11.4732308 L27.4434613,16.5427692 L22.9252177,16.5427692 L22.9252177,16.5427692 Z" id="Fill-11" sketch:type="MSShapeGroup"></path>
            <path d="M68.2087159,8.29723077 L62.9084686,8.29723077 L62.9084686,0.269538462 L59.72869,0.269538462 L59.72869,24.2763077 L62.9084686,24.2763077 L62.9084686,11.4732308 L68.2087159,11.4732308 L68.2087159,24.2763077 L71.3884945,24.2763077 L71.3884945,8.29723077 L68.2087159,8.29723077" id="Fill-12" sketch:type="MSShapeGroup"></path>
            <path d="M38.7717306,5.22461538 L35.5925683,5.22461538 L35.5925683,8.29723077 L32.7646605,8.29723077 L32.7646605,11.4732308 L35.5925683,11.4732308 L35.5925683,24.2763077 L38.7717306,24.2763077 L38.7717306,11.4732308 L41.5984059,11.4732308 L41.5984059,8.29723077 L38.7717306,8.29723077 L38.7717306,5.22461538" id="Fill-13" sketch:type="MSShapeGroup"></path>
            <path d="M83.7699114,8.29723077 L75.2892694,8.29723077 L75.2892694,11.4732308 L75.2905018,11.4732308 L75.2905018,24.2763077 L86.9503063,24.2763077 L86.9503063,8.29723077 L83.7699114,8.29723077 L83.7699114,8.29723077 Z M78.4702804,11.4732308 L83.7699114,11.4732308 L83.7699114,21.3064615 L78.4702804,21.3064615 L78.4702804,11.4732308 Z" id="Fill-14" sketch:type="MSShapeGroup"></path>
            <path d="M99.2879705,21.3064615 L93.9889557,21.3064615 L93.9889557,11.5753846 L90.8085609,11.5753846 L90.8085609,24.2763077 L102.468365,24.2763077 L102.468365,8.40061538 L99.2879705,8.40061538 L99.2879705,21.3064615" id="Fill-15" sketch:type="MSShapeGroup"></path>
        </g>
    </g>
</svg>