<?xml version="1.0" encoding="UTF-8" standalone="no"?>
<svg width="24px" height="24px" viewBox="0 0 24 24" version="1.1" xmlns="http://www.w3.org/2000/svg" xmlns:xlink="http://www.w3.org/1999/xlink" xmlns:sketch="http://www.bohemiancoding.com/sketch/ns">
    <!-- Generator: Sketch 3.0.4 (8053) - http://www.bohemiancoding.com/sketch -->
    <title>icon_ask</title>
    <desc>Created with Sketch.</desc>
    <defs></defs>
    <g id="Page-1" stroke="none" stroke-width="1" fill="none" fill-rule="evenodd" sketch:type="MSPage">
        <g id="icon_ask" sketch:type="MSLayerGroup" transform="translate(0.000000, 2.000000)" fill="#FFFFFF">
            <g id="Page-1" sketch:type="MSShapeGroup">
                <path d="M19.9911267,13.2035172 L23.1340426,8.35865243 L20.0439228,3.08874608 L11.509602,-0.150990772 L2.85260818,2.85733635 L0.118085108,8.24869178 L2.40539487,13.8657398 L0.49386852,20.4831353 L7.07007819,15.573416 L11.6214053,16.621382 L19.9911267,13.2035172 Z M9.895,11.69 L9.895,14 L12.25,14 L12.25,11.69 L9.895,11.69 Z M7.48,6.74 L9.685,6.74 C9.685,6.46999865 9.7149997,6.21750117 9.775,5.9825 C9.8350003,5.74749882 9.92749938,5.54250087 10.0525,5.3675 C10.1775006,5.19249912 10.337499,5.05250052 10.5325,4.9475 C10.727501,4.84249947 10.9599986,4.79 11.23,4.79 C11.630002,4.79 11.9424989,4.8999989 12.1675,5.12 C12.3925011,5.3400011 12.505,5.6799977 12.505,6.14 C12.515,6.41000135 12.4675005,6.6349991 12.3625,6.815 C12.2574995,6.9950009 12.1200009,7.15999925 11.95,7.31 C11.7799991,7.46000075 11.595001,7.60999925 11.395,7.76 C11.194999,7.91000075 11.0050009,8.08749897 10.825,8.2925 C10.6449991,8.49750102 10.4875007,8.74499855 10.3525,9.035 C10.2174993,9.32500145 10.1350001,9.68499785 10.105,10.115 L10.105,10.79 L12.13,10.79 L12.13,10.22 C12.1700002,9.9199985 12.2674992,9.670001 12.4225,9.47 C12.5775008,9.269999 12.754999,9.09250077 12.955,8.9375 C13.155001,8.78249922 13.3674989,8.62750077 13.5925,8.4725 C13.8175011,8.31749922 14.0224991,8.1300011 14.2075,7.91 C14.3925009,7.6899989 14.5474994,7.42500155 14.6725,7.115 C14.7975006,6.80499845 14.86,6.4100024 14.86,5.93 C14.86,5.63999855 14.7975006,5.32750167 14.6725,4.9925 C14.5474994,4.65749832 14.3400014,4.34500145 14.05,4.055 C13.7599985,3.76499855 13.3775024,3.52250097 12.9025,3.3275 C12.4274976,3.13249902 11.8350035,3.035 11.125,3.035 C10.5749972,3.035 10.0775022,3.12749907 9.6325,3.3125 C9.18749778,3.49750092 8.80750157,3.75499835 8.4925,4.085 C8.17749842,4.41500165 7.93250087,4.80499775 7.7575,5.255 C7.58249913,5.70500225 7.49000005,6.1999973 7.48,6.74 Z" id="Path-1"></path>
            </g>
        </g>
    </g>
</svg>