<?xml version="1.0" encoding="UTF-8" standalone="no"?>
<svg width="24px" height="24px" viewBox="0 0 24 24" version="1.1" xmlns="http://www.w3.org/2000/svg" xmlns:xlink="http://www.w3.org/1999/xlink" xmlns:sketch="http://www.bohemiancoding.com/sketch/ns">
    <!-- Generator: Sketch 3.1 (8751) - http://www.bohemiancoding.com/sketch -->
    <title>icon_forecast</title>
    <desc>Created with Sketch.</desc>
    <defs></defs>
    <g id="Page-1" stroke="none" stroke-width="1" fill="none" fill-rule="evenodd" sketch:type="MSPage">
        <path d="M19.0568101,20.3205128 L13.6326208,12.0764112 C13.5872568,12.0074635 13.540513,11.9419435 13.4925266,11.8798499 C13.540513,11.8177562 13.5872568,11.7522363 13.6326208,11.6832886 L18.8987051,3.67948718 L18.8987051,3.67948718 L19.5555556,3.67948718 L20.5,0.929487179 L3.5,0.929487179 L4.44444444,3.67948718 L5.06222335,3.67948718 L10.3283077,11.6832886 C10.373665,11.7522262 10.4204166,11.8177471 10.468424,11.8798499 L10.468424,11.8798499 C10.4204166,11.9419526 10.373665,12.0074736 10.3283077,12.0764112 L4.9041183,20.3205128 L4.44444444,20.3205128 L3.5,23.0705128 L20.5,23.0705128 L19.5555556,20.3205128 L19.0568101,20.3205128 Z M9.82735655,20.3205128 L11.9804642,16.9545548 L14.1335719,20.3205128 L9.82735655,20.3205128 Z M8.03871489,5.5693701 L15.9222136,5.5693701 L11.9804642,11.7315157 L8.03871489,5.5693701 Z M11.5526316,15.3846154 L11.5526316,16.2307692 L12.4473684,16.2307692 L12.4473684,15.3846154 L11.5526316,15.3846154 Z M11.5526316,13.6923077 L11.5526316,14.5384615 L12.4473684,14.5384615 L12.4473684,13.6923077 L11.5526316,13.6923077 Z" id="Triangle-3" fill="#FFFFFF" sketch:type="MSShapeGroup"></path>
    </g>
</svg>