<?xml version="1.0" encoding="UTF-8" standalone="no"?>
<svg width="48px" height="48px" viewBox="0 0 48 48" version="1.1" xmlns="http://www.w3.org/2000/svg" xmlns:xlink="http://www.w3.org/1999/xlink" xmlns:sketch="http://www.bohemiancoding.com/sketch/ns">
    <title>Untitled 2</title>
    <description>Created with Sketch (http://www.bohemiancoding.com/sketch)</description>
    <defs></defs>
    <g id="Page-1" stroke="none" stroke-width="1" fill="none" fill-rule="evenodd" sketch:type="MSPage">
        <path d="M24,8 C15.1634202,8 8,15.2858228 8,24.2732186 C8,30.7820305 11.7578414,36.3973549 17.1868553,39 L17.1868553,21.0253509 C17.1868553,19.9869986 17.4254139,19.0028546 17.8485544,18.125582 C17.7561933,18.0006887 17.676666,17.8628853 17.6166348,17.7108878 C17.2475644,16.7775047 17.1871125,14.4389354 18.1048325,14.0635898 C18.7439732,13.8022483 19.6883427,14.5619029 20.3278807,15.3624278 C21.3140476,14.750491 22.4703263,14.3971379 23.7039582,14.3971379 L24.2960418,14.3971379 C25.5793023,14.3971379 26.7777992,14.7808763 27.7893765,15.4389139 C28.4283769,14.6111422 29.4131646,13.7938555 30.0725962,14.0635898 C30.9903162,14.4389354 30.9298642,16.7775047 30.5609341,17.7108878 C30.4773626,17.9218963 30.3583522,18.1066091 30.2152638,18.2643841 C30.5978458,19.1063023 30.8131447,20.041207 30.8131447,21.0253509 L30.8131447,39 C36.2421586,36.3973549 40,30.7820305 40,24.2732186 C40,15.2858228 32.8365798,8 24,8" id="Fill-150" fill="#92928A" sketch:type="MSShapeGroup"></path>
    </g>
</svg>