<?xml version="1.0" encoding="UTF-8" standalone="no"?>
<svg width="24px" height="24px" viewBox="0 0 24 24" version="1.1" xmlns="http://www.w3.org/2000/svg" xmlns:xlink="http://www.w3.org/1999/xlink" xmlns:sketch="http://www.bohemiancoding.com/sketch/ns">
    <!-- Generator: Sketch 3.0.4 (8053) - http://www.bohemiancoding.com/sketch -->
    <title>icon_wiki</title>
    <desc>Created with Sketch.</desc>
    <defs></defs>
    <g id="Page-1" stroke="none" stroke-width="1" fill="none" fill-rule="evenodd" sketch:type="MSPage">
        <g id="icon_wiki" sketch:type="MSLayerGroup" transform="translate(2.000000, 2.000000)">
            <g id="Page-1" sketch:type="MSShapeGroup">
                <rect id="Rectangle-1" fill="#333333" x="0" y="0" width="20" height="20" rx="5"></rect>
                <g id="Wikipedia-logo-v2" transform="translate(8.710068, 9.629751) rotate(15.000000) translate(-8.710068, -9.629751) translate(1.210068, 3.796418)" fill="#FFFFFF">
                    <path d="M13.3770076,6.42494349 L13.3770076,5.98855348 C13.5747641,5.10362083 13.5283632,4.03860825 13.7239101,3.14704689 C13.9901632,1.94504099 13.6123267,0.773969068 14.817647,0.480096303 C14.8408475,0.36298911 14.8806197,0.316588147 14.817647,0.217157512 C14.7900274,0.143136928 14.807704,0.174070903 14.7734557,0.12987951 C14.7259499,0.09563118 14.7314738,0.103364674 14.6453006,0.0867929017 C14.3083412,0.332055135 13.3957889,0.498877644 12.9406176,0.610460913 C12.5948199,0.69442456 12.2346601,0.621508761 11.97835,0.785016917 C11.9352634,0.799379119 11.8921768,0.814846108 11.8468806,0.82920831 C11.8623476,0.916486308 11.8745002,1.0048691 11.8921768,1.09104232 C12.3904348,1.25344568 12.8500252,1.05679398 13.0709823,1.48434572 C13.2146043,1.76275149 13.1947181,2.76258177 13.1140688,3.14594211 C12.8367678,4.43080687 12.9527702,5.89796113 12.676574,7.1673589 C12.5815625,7.60595848 12.7008793,8.46106192 12.5031228,8.78365908 L12.5031228,8.87204192 C12.2368697,8.74499167 12.0645233,8.40140358 11.891072,8.1727131 C11.4999782,7.65677858 10.9243853,7.24469384 10.5332914,6.73096889 C10.2979723,6.42052436 10.0505005,6.04931665 9.74668467,5.81068313 C9.78756167,4.96994187 10.0328239,4.08721878 10.2305804,3.32049811 C10.3753072,2.74380043 10.3797263,2.21018935 10.6669704,1.78926633 C10.8304786,1.54952803 11.2248867,1.39706772 11.4966638,1.26449353 C11.4944542,1.15401505 11.4922447,1.10319495 11.4524724,1.04574613 C11.4370054,1.00155474 11.4270624,0.958468133 11.4115954,0.914276742 C10.8116972,1.00376432 10.3034962,1.29100837 9.74889425,1.43904954 C9.24732192,1.57493808 8.74243523,1.54068974 8.34692227,1.74397015 C8.36017968,1.84450558 8.35797011,1.86770605 8.39221844,1.91852616 C8.40768543,1.96161277 8.41873327,2.00690894 8.43530505,2.04889077 C9.97206075,1.96271755 9.73895117,2.79793488 9.44286883,3.97342595 C9.35006692,4.3335858 9.41083008,4.82963419 9.22301667,5.10914476 L9.22301667,5.19642276 L9.17993,5.19642276 C8.86506635,4.71805093 8.39221844,4.25514608 8.00112461,3.84085177 C7.83982602,3.69502017 7.67963223,3.54918858 7.52054321,3.40446176 C7.40564558,3.25310623 7.34377763,3.05976889 7.21341302,2.92277557 C7.23992786,2.4399846 7.63323126,2.3162487 8.00112461,2.18036016 C7.98455283,1.97818453 7.9436758,1.95277448 7.87076,1.83014337 C6.73172683,1.99696588 5.74183963,2.6366363 4.461394,2.70402818 L4.461394,2.74932435 L4.41720261,2.74932435 C4.42162175,2.85980283 4.42162175,2.91062293 4.461394,2.96696697 L4.461394,3.05424497 C4.71218016,3.09733158 5.08449265,2.99458658 5.3794702,3.09843636 C5.85121332,3.26415408 6.27434592,3.81433693 6.55827562,4.19217334 C6.98693213,4.75892797 7.65864131,5.24061415 8.08729783,5.80847356 C8.31267393,6.1111846 8.56677444,6.50890714 8.87500942,6.72765454 C8.83302759,7.49658478 8.62201368,8.30528728 8.43751462,9.00130175 C8.34250313,9.35814725 8.39884715,9.81331858 8.21987201,10.0928292 C8.19225238,10.1690593 8.20882416,10.1359157 8.17457582,10.1812119 C7.75807195,9.38797642 6.95489337,8.78365908 6.42680622,8.08212074 C5.41261374,6.73428325 4.28573322,5.52012472 3.23508283,4.19217334 C3.23508283,4.00767428 3.24613068,3.89609101 3.32346563,3.79886994 C3.40411492,3.54587422 3.72008338,3.30945026 4.02279442,3.27299237 C4.03936619,3.14041818 4.05925233,3.12384641 3.97970782,3.01005358 C3.96203126,2.96807175 3.95098341,2.92498514 3.93441163,2.87968896 C3.04726942,3.0155775 2.2540339,3.42876703 1.40114001,3.66850533 C0.958121293,3.79224123 0.375899685,3.73147807 0.04335945,3.97342595 C-0.000831941667,3.98778815 -0.0450233333,4.00215035 -0.085900375,4.01761734 C-0.0626998917,4.18554463 -0.0185085,4.21205948 0.04335945,4.32364274 C0.390261888,4.31811882 0.757050453,4.22200253 1.09180026,4.32364274 C1.96789463,4.58989588 2.59541242,5.5797831 3.10029908,6.24817793 C3.32236084,6.54205068 3.66705371,6.78178899 3.88801068,7.07787133 C4.825973,8.32517341 5.88546165,9.44873958 6.81569048,10.7070895 C7.17805991,11.1954044 7.66747959,11.618537 7.99339112,12.1477289 C8.1911476,12.1433098 8.23202464,12.1201093 8.34250313,12.0604509 C8.57782229,11.0341058 8.70929169,9.99892242 9.00095488,8.95600558 C9.13242428,8.4787385 9.298142,7.91529823 9.34785733,7.38279194 C9.709122,7.51205178 10.0018899,8.05339634 10.2239517,8.3450595 C10.9067087,9.25208792 11.8711859,10.0044463 12.4964941,10.9667139 C12.6776788,10.9589804 12.6975649,10.9379895 12.8025195,10.8805408 C13.000276,9.3979195 13.1869846,7.9108791 13.3770076,6.42494349 L13.3770076,6.42494349 L13.3770076,6.42494349 Z" id="Shape"></path>
                </g>
            </g>
        </g>
    </g>
</svg>