<?xml version="1.0" encoding="UTF-8" standalone="no"?>
<svg width="24px" height="24px" viewBox="0 0 24 24" version="1.1" xmlns="http://www.w3.org/2000/svg" xmlns:xlink="http://www.w3.org/1999/xlink" xmlns:sketch="http://www.bohemiancoding.com/sketch/ns">
    <!-- Generator: Sketch 3.1 (8751) - http://www.bohemiancoding.com/sketch -->
    <title>icon_hyperlink</title>
    <desc>Created with Sketch.</desc>
    <defs></defs>
    <g id="Page-1" stroke="none" stroke-width="1" fill="none" fill-rule="evenodd" sketch:type="MSPage">
        <g id="icon_hyperlink" sketch:type="MSLayerGroup" transform="translate(2.000000, 2.000000)">
            <g id="Page-1" fill="#333333" sketch:type="MSShapeGroup">
                <g id="icon_facebook">
                    <g id="Page-1">
                        <rect id="Rectangle-1" x="0" y="0" width="20" height="20" rx="5"></rect>
                    </g>
                </g>
            </g>
            <path d="M16.0347091,4.02050442 L15.9796386,3.96524262 C14.6924564,2.67825246 12.5863547,2.67825246 11.2993912,3.96524262 L8.31746742,6.94757512 C7.03047662,8.23453794 7.03047662,10.3406113 8.31746742,11.6276015 L8.37251049,11.6826446 C8.47958883,11.7899416 8.59325702,11.8866839 8.71069865,11.9760161 L9.80237266,10.8843153 C9.67519663,10.8092019 9.55455577,10.7192681 9.44531728,10.610057 L9.39005545,10.5547952 C8.69122987,9.85618875 8.69122987,8.71904256 9.39005545,8.02016263 L12.37228,5.03815826 C13.071133,4.33927833 14.208061,4.33927833 14.9068592,5.03815826 L14.962121,5.09317396 C15.6607552,5.79202655 15.6607552,6.92920009 14.962121,7.62780658 L13.6128957,8.97703122 C13.8471227,9.55546175 13.9580839,10.1719548 13.9483769,10.7869987 L16.0347637,8.70061284 C17.3217545,7.41359533 17.3217545,5.30754928 16.0347091,4.02050442 L16.0347091,4.02050442 Z M11.6275169,8.31747166 C11.5204385,8.21039337 11.4067703,8.11345964 11.2893287,8.02434623 L10.1976547,9.11580095 C10.3248581,9.19094169 10.4454716,9.28087541 10.5547101,9.39008651 L10.6099719,9.44532096 C11.3088248,10.1441736 11.3088248,11.2810737 10.6099719,11.9799262 L7.62771998,14.9622314 C6.9288397,15.6608926 5.7919117,15.6608926 5.09311346,14.9622314 L5.03785164,14.9069696 C4.3392448,14.2080623 4.3392448,13.0711622 5.03785164,12.3723643 L6.38710427,11.0231397 C6.15284991,10.4447365 6.04194344,9.82818871 6.05162315,9.21317219 L3.9652636,11.299476 C2.67824547,12.5864388 2.67824547,14.6925396 3.9652636,15.9796938 L4.02030668,16.0348189 C5.30754357,17.321727 7.41356331,17.321727 8.70058145,16.0348189 L11.6825599,13.0527325 C12.9695507,11.7657697 12.9695507,9.65945018 11.6825599,8.37248736 L11.6275169,8.31747166 L11.6275169,8.31747166 Z" id="Shape" fill="#FFFFFF" sketch:type="MSShapeGroup"></path>
        </g>
    </g>
</svg>