<?xml version="1.0" encoding="UTF-8" standalone="no"?>
<svg width="24px" height="24px" viewBox="0 0 24 24" version="1.1" xmlns="http://www.w3.org/2000/svg" xmlns:xlink="http://www.w3.org/1999/xlink" xmlns:sketch="http://www.bohemiancoding.com/sketch/ns">
    <title>Untitled</title>
    <description>Created with Sketch (http://www.bohemiancoding.com/sketch)</description>
    <defs></defs>
    <g id="Page-1" stroke="none" stroke-width="1" fill="none" fill-rule="evenodd" sketch:type="MSPage">
        <rect id="Rectangle-1" fill="#333333" sketch:type="MSShapeGroup" x="0" y="0" width="24" height="24" rx="5"></rect>
        <g id="Wikipedia-logo-v2" sketch:type="MSLayerGroup" transform="translate(10.935044, 11.685111) rotate(-345.000000) translate(-10.935044, -11.685111) translate(2.435044, 4.685111)" fill="#FFFFFF">
            <path d="M15.0524091,7.70993219 L15.0524091,7.18626418 C15.2897169,6.124345 15.2340358,4.8463299 15.4686921,3.77645627 C15.7881958,2.33404919 15.3347921,0.928762882 16.7811764,0.576115563 C16.809017,0.435586932 16.8567437,0.379905776 16.7811764,0.260589014 C16.7480329,0.171764314 16.7692448,0.208885084 16.7281468,0.155855412 C16.6711399,0.114757416 16.6777686,0.124037609 16.5743607,0.104151482 C16.1700095,0.398466162 15.0749467,0.598653173 14.5287411,0.732553095 C14.1137839,0.833309472 13.6815921,0.745810513 13.37402,0.9420203 C13.3223161,0.959254943 13.2706122,0.977815329 13.2162567,0.995049972 C13.2348171,1.09978357 13.2494003,1.20584292 13.2706122,1.30925078 C13.8685217,1.50413482 14.4200303,1.26815278 14.6851787,1.78121486 C14.8575251,2.11530179 14.8336617,3.31509812 14.7368826,3.77513053 C14.4041214,5.31696824 14.5433243,7.07755335 14.2118888,8.60083068 C14.097875,9.12715018 14.2410552,10.1532743 14.0037474,10.5403909 L14.0037474,10.6464503 C13.6842436,10.49399 13.4774279,10.0816843 13.2692864,9.80725572 C12.7999738,9.1881343 12.1092623,8.69363261 11.6399497,8.07716267 C11.3575667,7.70462923 11.0606006,7.25917998 10.6960216,6.97281975 C10.745074,5.96393024 11.0393887,4.90466254 11.2766965,3.98459773 C11.4503687,3.29256051 11.4556716,2.65222722 11.8003645,2.1471196 C11.9965743,1.85943363 12.4698641,1.67648126 12.7959966,1.51739224 C12.7933451,1.38481806 12.7906936,1.32383394 12.7429669,1.25489536 C12.7244065,1.20186569 12.7124749,1.15016176 12.6939145,1.09713209 C11.9740367,1.20451718 11.3641954,1.54921004 10.6986731,1.72685945 C10.0967863,1.88992569 9.49092228,1.84882769 9.01630672,2.09276418 C9.03221562,2.21340669 9.02956413,2.24124726 9.07066213,2.30223139 C9.08922251,2.35393532 9.10247993,2.40829073 9.12236606,2.45866892 C10.9664729,2.35526106 10.6867414,3.35752186 10.3314426,4.76811114 C10.2200803,5.20030296 10.2929961,5.79556103 10.06762,6.13097371 L10.06762,6.23570731 L10.015916,6.23570731 C9.63807962,5.66166111 9.07066213,5.1061753 8.60134953,4.60902212 C8.40779123,4.4340242 8.21555867,4.25902629 8.02465185,4.08535411 C7.8867747,3.90372748 7.81253316,3.67172267 7.65609563,3.50733068 C7.68791343,2.92798152 8.15987751,2.77949844 8.60134953,2.61643219 C8.5814634,2.37382144 8.53241096,2.34332938 8.444912,2.19617204 C7.0780722,2.39635906 5.89020755,3.16396356 4.3536728,3.24483381 L4.3536728,3.29918922 L4.30064313,3.29918922 C4.3059461,3.4317634 4.3059461,3.49274752 4.3536728,3.56036036 L4.3536728,3.66509396 C4.65461619,3.71679789 5.10139118,3.5935039 5.45536424,3.71812363 C6.02145599,3.9169849 6.5292151,4.57720432 6.86993074,5.03060801 C7.38431856,5.71071356 8.19036957,6.28873698 8.70475739,6.97016827 C8.97520872,7.33342152 9.28012933,7.81068857 9.6500113,8.07318545 C9.59963311,8.99590174 9.34641642,9.96634474 9.12501754,10.8015621 C9.01100375,11.2297767 9.07861658,11.7759823 8.86384641,12.111395 C8.83070286,12.2028712 8.85058899,12.1630989 8.80949099,12.2174543 C8.30968634,11.2655717 7.34587205,10.5403909 6.71216747,9.69854489 C5.49513649,8.0811399 4.14287986,6.62414966 2.8820994,5.03060801 C2.8820994,4.80920913 2.89535682,4.67530921 2.98815875,4.55864393 C3.0849379,4.25504906 3.46410005,3.97134031 3.82735331,3.92759084 C3.84723943,3.76850182 3.87110279,3.74861569 3.77564938,3.61206429 C3.75443751,3.5616861 3.74118009,3.50998217 3.72129396,3.45562675 C2.6567233,3.618693 1.70484068,4.11452043 0.681368013,4.4022064 C0.149745551,4.55068948 -0.548920378,4.47777368 -0.94796866,4.76811114 C-1.00099833,4.78534578 -1.054028,4.80258042 -1.10308045,4.82114081 C-1.07523987,5.02265356 -1.0222102,5.05447137 -0.94796866,5.18837129 C-0.531685734,5.18174258 -0.0915394566,5.06640304 0.310160309,5.18837129 C1.36147356,5.50787506 2.1144949,6.69573972 2.7203589,7.49781351 C2.98683301,7.85046082 3.40046445,8.13814679 3.66561281,8.4934456 C4.7911676,9.99020809 6.06255398,11.3384875 7.17882858,12.8485074 C7.61367189,13.4344853 8.20097551,13.9422444 8.59206934,14.5772747 C8.82937712,14.5719718 8.87842957,14.5441312 9.01100375,14.4725411 C9.29338675,13.240927 9.45115003,11.9987069 9.80114586,10.7472067 C9.95890914,10.1744862 10.1577704,9.49835788 10.2174288,8.85935033 C10.6509464,9.01446213 11.0022679,9.66407561 11.268742,10.0140714 C12.0880505,11.1025055 13.2454231,12.0053356 13.9957929,13.1600567 C14.2132146,13.1507765 14.2370779,13.1255874 14.3630234,13.0566489 C14.6003312,11.2775034 14.8243815,9.49305492 15.0524091,7.70993219 L15.0524091,7.70993219 L15.0524091,7.70993219 Z" id="Shape" sketch:type="MSShapeGroup"></path>
        </g>
    </g>
</svg>