<?xml version="1.0" encoding="UTF-8" standalone="no"?>
<svg width="49px" height="48px" viewBox="0 0 49 48" version="1.1" xmlns="http://www.w3.org/2000/svg" xmlns:xlink="http://www.w3.org/1999/xlink" xmlns:sketch="http://www.bohemiancoding.com/sketch/ns">
    <!-- Generator: Sketch 3.1.1 (8761) - http://www.bohemiancoding.com/sketch -->
    <title>icon_mark</title>
    <desc>Created with Sketch.</desc>
    <defs></defs>
    <g id="Page-1" stroke="none" stroke-width="1" fill="none" fill-rule="evenodd" sketch:type="MSPage">
        <g id="icon_mark" sketch:type="MSLayerGroup" transform="translate(6.500000, 6.500000)" fill="#FFFFFF">
            <g id="Page-1" sketch:type="MSShapeGroup">
                <g id="icon_mark" transform="translate(0.000000, -0.564516)">
                    <g id="Page-1">
                        <path d="M18,0 C8.05884772,0 0,8.22592897 0,18.3729887 C0,25.7216473 4.22757158,32.0615297 10.3352122,35 L10.3352122,14.7060413 C10.3352122,13.5337081 10.6035906,12.4225778 11.0796237,11.4321087 C10.9757175,11.2911001 10.8862493,11.1355157 10.8187141,10.9639056 C10.40351,9.91008595 10.3355016,7.26976577 11.3679366,6.84598848 C12.0869698,6.5509255 13.1493855,7.40860005 13.8688658,8.31241848 C14.9783035,7.6215221 16.2791171,7.22257505 17.666953,7.22257505 L18.333047,7.22257505 C19.7767151,7.22257505 21.1250241,7.65582808 22.2630486,8.39877376 C22.981924,7.46419281 24.0898102,6.54144976 24.8316707,6.84598848 C25.8641057,7.26976577 25.7960972,9.91008595 25.3810509,10.9639056 C25.2870329,11.202141 25.1531462,11.4106877 24.9921718,11.5888208 C25.4225765,12.5393736 25.6647878,13.5949111 25.6647878,14.7060413 L25.6647878,35 C31.7724284,32.0615297 36,25.7216473 36,18.3729887 C36,8.22592897 27.9411523,0 18,0" id="Fill-150"></path>
                    </g>
                </g>
            </g>
        </g>
    </g>
</svg>