<?xml version="1.0" encoding="UTF-8" standalone="no"?>
<svg width="48px" height="48px" viewBox="0 0 48 48" version="1.1" xmlns="http://www.w3.org/2000/svg" xmlns:xlink="http://www.w3.org/1999/xlink" xmlns:sketch="http://www.bohemiancoding.com/sketch/ns">
    <!-- Generator: Sketch 3.0.4 (8053) - http://www.bohemiancoding.com/sketch -->
    <title>icon_topic</title>
    <desc>Created with Sketch.</desc>
    <defs></defs>
    <g id="Page-1" stroke="none" stroke-width="1" fill="none" fill-rule="evenodd" sketch:type="MSPage">
        <path d="M17.5524611,31.8506786 L18.5088659,34.2595763 L26.8315156,35.8555292 L31.8967093,35.3810002 L37.5441888,38 L36.0823185,32.7982695 L38.4553191,28.1528802 L37.2502116,26.2178442 L35.8723404,28.6046896 L23.4042553,33.1618426 L17.5524611,31.8506786 Z M23.4042553,31.1618426 L34.8723404,26.6046896 L39.1787234,20.1448699 L34.9446809,13.1183281 L23.2510638,8.79867897 L11.3893617,12.8097818 L7.64255319,19.9982557 L9.77659574,26.487653 L7.15744681,37.310847 L17.1680851,29.7645546 L23.4042553,31.1618426 Z M24.5430922,22.2938839 C24.5284255,21.9272173 24.5284255,21.7658839 24.5284255,21.6192173 C24.5284255,21.3992173 24.5430922,21.1058839 24.5724255,20.4898839 L24.8657589,15.8405506 C24.9097589,15.2245506 24.9977589,14.1978839 25.0417589,13.8605506 L21.6244255,13.8605506 C21.6977589,14.5792173 21.7710922,15.2392173 21.8004255,15.8405506 L22.0937589,20.4898839 C22.1524255,21.3552173 22.1524255,21.3552173 22.1524255,21.6338839 C22.1524255,21.8685506 22.1524255,22.0005506 22.1230922,22.2938839 L24.5430922,22.2938839 Z M24.8070922,26.0632173 L24.8070922,23.2912173 L21.8590922,23.2912173 L21.8590922,26.0632173 L24.8070922,26.0632173 Z" id="Path-1" fill="#FFFFFF" sketch:type="MSShapeGroup"></path>
    </g>
</svg>