<?xml version="1.0" encoding="UTF-8" standalone="no"?>
<svg width="24px" height="24px" viewBox="0 0 24 24" version="1.1" xmlns="http://www.w3.org/2000/svg" xmlns:xlink="http://www.w3.org/1999/xlink" xmlns:sketch="http://www.bohemiancoding.com/sketch/ns">
    <!-- Generator: Sketch 3.1 (8751) - http://www.bohemiancoding.com/sketch -->
    <title>icon_forecast</title>
    <desc>Created with Sketch.</desc>
    <defs></defs>
    <g id="Page-1" stroke="none" stroke-width="1" fill="none" fill-rule="evenodd" sketch:type="MSPage">
        <g id="icon_forecast" sketch:type="MSLayerGroup" transform="translate(4.000000, 2.000000)" fill="#FFFFFF">
            <g id="Page-1" sketch:type="MSShapeGroup">
                <path d="M14.1711154,17.5641025 L9.06599605,10.0694647 C9.02330052,10.006785 8.97930635,9.94722136 8.93414268,9.89077264 C8.97930635,9.83432382 9.02330052,9.77476027 9.06599605,9.71208055 L14.0223107,2.43589744 L14.6405229,2.43589744 L15.5294118,-0.0641025645 L-0.470588235,-0.0641025645 L0.418300649,2.43589744 L0.999739624,2.43589744 L5.95605431,9.71208055 C5.99874353,9.77475109 6.04274504,9.83431555 6.08792847,9.89077264 L6.08792847,9.89077264 C6.04274504,9.94722964 5.99874353,10.0067942 5.95605431,10.0694647 L0.850934871,17.5641025 L0.418300649,17.5641025 L-0.470588235,20.0641025 L15.5294118,20.0641025 L14.6405229,17.5641025 L14.1711154,17.5641025 L14.1711154,17.5641025 Z M5.48457087,17.5641025 L7.51102513,14.5041407 L9.53747944,17.5641025 L5.48457087,17.5641025 L5.48457087,17.5641025 Z M3.80114343,4.15397282 L11.2209069,4.15397282 L7.51102513,9.75592336 L3.80114343,4.15397282 L3.80114343,4.15397282 Z M7.10835915,13.0769231 L7.10835915,13.8461538 L7.95046438,13.8461538 L7.95046438,13.0769231 L7.10835915,13.0769231 L7.10835915,13.0769231 Z M7.10835915,11.5384615 L7.10835915,12.3076923 L7.95046438,12.3076923 L7.95046438,11.5384615 L7.10835915,11.5384615 L7.10835915,11.5384615 Z" id="Triangle-3"></path>
            </g>
        </g>
    </g>
</svg>