<?xml version="1.0" encoding="UTF-8" standalone="no"?>
<svg width="25px" height="24px" viewBox="0 0 25 24" version="1.1" xmlns="http://www.w3.org/2000/svg" xmlns:xlink="http://www.w3.org/1999/xlink" xmlns:sketch="http://www.bohemiancoding.com/sketch/ns">
    <!-- Generator: Sketch 3.0.3 (7891) - http://www.bohemiancoding.com/sketch -->
    <title>icon-search-close</title>
    <desc>Created with Sketch.</desc>
    <defs></defs>
    <g id="Page-1" stroke="none" stroke-width="1" fill="none" fill-rule="evenodd" sketch:type="MSPage">
        <path d="M10.9210526,13.5789474 L4.58724938,13.5789474 C3.69875346,13.5789474 3,12.8720286 3,12 C3,11.1218918 3.71063575,10.4210526 4.58724938,10.4210526 L10.9210526,10.4210526 L10.9210526,4.08724938 C10.9210526,3.19875346 11.6279714,2.5 12.5,2.5 C13.3781082,2.5 14.0789474,3.21063575 14.0789474,4.08724938 L14.0789474,10.4210526 L20.4127506,10.4210526 C21.3012465,10.4210526 22,11.1279714 22,12 C22,12.8781082 21.2893642,13.5789474 20.4127506,13.5789474 L14.0789474,13.5789474 L14.0789474,19.9127506 C14.0789474,20.8012465 13.3720286,21.5 12.5,21.5 C11.6218918,21.5 10.9210526,20.7893642 10.9210526,19.9127506 L10.9210526,13.5789474 Z" id="Rectangle-3" fill="#FFFFFF" sketch:type="MSShapeGroup" transform="translate(12.500000, 12.000000) rotate(-315.000000) translate(-12.500000, -12.000000) "></path>
    </g>
</svg>