<?xml version="1.0" encoding="UTF-8" standalone="no"?>
<svg width="24px" height="24px" viewBox="0 0 24 24" version="1.1" xmlns="http://www.w3.org/2000/svg" xmlns:xlink="http://www.w3.org/1999/xlink" xmlns:sketch="http://www.bohemiancoding.com/sketch/ns">
    <!-- Generator: Sketch 3.0.4 (8053) - http://www.bohemiancoding.com/sketch -->
    <title>icon_lyvote</title>
    <desc>Created with Sketch.</desc>
    <defs></defs>
    <g id="Page-1" stroke="none" stroke-width="1" fill="none" fill-rule="evenodd" sketch:type="MSPage">
        <g id="icon_lyvote" sketch:type="MSLayerGroup" transform="translate(2.000000, 2.000000)" fill="#333333">
            <g id="Element" sketch:type="MSShapeGroup">
                <path d="M4.9775434,12.9687348 C4.46238057,12.0990676 4.16666667,11.0840676 4.16666667,10 C4.16666667,7.06127341 6.33975488,4.63009877 9.16666667,4.22574072 L9.16666667,4.22574072 L9.16666667,8.86336583 L9.12478958,8.82148867 L8.53553392,9.41074433 L4.9775434,12.9687348 L4.9775434,12.9687348 Z M6.02963223,14.2736686 C6.8787898,15.0629216 7.96351076,15.6021613 9.16666667,15.7742593 L9.16666667,15.492188 L9.16666667,11.1366342 L6.02963223,14.2736686 L6.02963223,14.2736686 Z M10.8333333,4.22574072 C13.6602451,4.63009877 15.8333333,7.06127341 15.8333333,10 C15.8333333,12.9387266 13.6602451,15.3699013 10.8333333,15.7742593 L10.8333333,15.492188 L10.8333333,4.22574072 L10.8333333,4.22574072 Z M4.16831057,0 C1.86621621,0 0,1.86359163 0,4.16831057 L0,15.8316894 C0,18.1337837 1.86359163,20 4.16831057,20 L15.8316894,20 C18.1337837,20 20,18.1364083 20,15.8316894 L20,4.16831057 C20,1.86621621 18.1364083,0 15.8316894,0 L4.16831057,0 L4.16831057,0 Z M17.5,10 C17.5,5.85786438 14.1421356,2.5 10,2.5 C5.85786438,2.5 2.5,5.85786438 2.5,10 C2.5,14.1421356 5.85786438,17.5 10,17.5 C14.1421356,17.5 17.5,14.1421356 17.5,10 L17.5,10 Z" id="Oval-34"></path>
            </g>
        </g>
    </g>
</svg>