<?xml version="1.0" encoding="UTF-8" standalone="no"?>
<svg width="24px" height="24px" viewBox="0 0 24 24" version="1.1" xmlns="http://www.w3.org/2000/svg" xmlns:xlink="http://www.w3.org/1999/xlink" xmlns:sketch="http://www.bohemiancoding.com/sketch/ns">
    <!-- Generator: Sketch 3.1 (8751) - http://www.bohemiancoding.com/sketch -->
    <title>icon_report_white</title>
    <desc>Created with Sketch.</desc>
    <defs></defs>
    <g id="Page-1" stroke="none" stroke-width="1" fill="none" fill-rule="evenodd" sketch:type="MSPage">
        <path d="M5.29982763,6.72785046 L2.09145269,20.0168111 L4.10599548,22.0462407 L18.949995,22.0462407 L16.9354522,20.1335126 L20.7932608,4.01360098 L18.658283,2.04624066 L16.2795226,4.27323743 L18.8385539,6.72785046 L5.29982763,6.72785046 L5.29982763,6.72785046 Z M6.03569851,13.8298834 L5.87257763,14.6023614 L15.65983,14.6023614 L15.8229509,13.8298834 L6.03569851,13.8298834 Z M7.63756239,8.14163608 L6.49571627,12.7765043 L16.2829687,12.7765043 L17.4248148,8.14163608 L7.63756239,8.14163608 Z M5.59855148,15.6557406 L5.4354306,16.4282186 L15.222683,16.4282186 L15.3858039,15.6557406 L5.59855148,15.6557406 Z M5.19074929,17.4815977 L5.02762842,18.2540758 L10.736859,18.2540758 L10.8999799,17.4815977 L5.19074929,17.4815977 Z M19.9708813,17.4815977 L22.0914527,19.5174998 L19.9708813,21.4984835 L20.0407903,21.4984835 L18.326856,19.5661418 L18.8966139,17.4815977 L19.9708813,17.4815977 Z M3.91668052,2.44785163 L2.09145269,4.20020253 L3.91668052,5.90528384 L16.7496497,5.90528384 L15.0156833,4.24206987 L16.9321725,2.44785163 L3.91668052,2.44785163 Z" id="Rectangle-29" fill="#FFFFFF" sketch:type="MSShapeGroup"></path>
    </g>
</svg>