<?xml version="1.0" encoding="UTF-8" standalone="no"?>
<svg width="24px" height="24px" viewBox="0 0 24 24" version="1.1" xmlns="http://www.w3.org/2000/svg" xmlns:xlink="http://www.w3.org/1999/xlink" xmlns:sketch="http://www.bohemiancoding.com/sketch/ns">
    <!-- Generator: Sketch 3.0.4 (8053) - http://www.bohemiancoding.com/sketch -->
    <title>icon_lyvote</title>
    <desc>Created with Sketch.</desc>
    <defs></defs>
    <g id="Element" stroke="none" stroke-width="1" fill="none" fill-rule="evenodd" sketch:type="MSPage">
        <path d="M5.97305208,15.5624818 C5.35485668,14.5188811 5,13.3008811 5,12 C5,8.47352809 7.60770586,5.55611852 11,5.07088886 L11,5.07088886 L11,10.636039 L10.9497475,10.5857864 L10.2426407,11.2928932 L5.97305208,15.5624818 Z M7.23555868,17.1284023 C8.25454776,18.0755059 9.55621291,18.7225936 11,18.9291111 L11,18.5906256 L11,13.363961 L7.23555868,17.1284023 Z M13,5.07088886 C16.3922941,5.55611852 19,8.47352809 19,12 C19,15.5264719 16.3922941,18.4438815 13,18.9291111 L13,18.5906256 L13,5.07088886 L13,5.07088886 Z M5.00197269,0 C2.23945945,0 0,2.23630996 0,5.00197269 L0,18.9980273 C0,21.7605405 2.23630996,24 5.00197269,24 L18.9980273,24 C21.7605405,24 24,21.76369 24,18.9980273 L24,5.00197269 C24,2.23945945 21.76369,0 18.9980273,0 L5.00197269,0 Z M21,12 C21,7.02943725 16.9705627,3 12,3 C7.02943725,3 3,7.02943725 3,12 C3,16.9705627 7.02943725,21 12,21 C16.9705627,21 21,16.9705627 21,12 Z" id="Oval-34" fill="#333333" sketch:type="MSShapeGroup"></path>
    </g>
</svg>