<?xml version="1.0" encoding="UTF-8" standalone="no"?>
<svg width="20px" height="20px" viewBox="0 0 20 20" version="1.1" xmlns="http://www.w3.org/2000/svg" xmlns:xlink="http://www.w3.org/1999/xlink" xmlns:sketch="http://www.bohemiancoding.com/sketch/ns">
    <!-- Generator: Sketch 3.0.4 (8053) - http://www.bohemiancoding.com/sketch -->
    <title>like-button-white</title>
    <desc>Created with Sketch.</desc>
    <defs></defs>
    <g id="Page-1" stroke="none" stroke-width="1" fill="none" fill-rule="evenodd" sketch:type="MSPage">
        <g id="like-button" sketch:type="MSLayerGroup" transform="translate(0.000000, 2.000000)" fill="#FFFFFF">
            <g id="Page-1" sketch:type="MSShapeGroup">
                <g id="dislike-button" transform="translate(10.000000, 8.000000) rotate(180.000000) translate(-10.000000, -8.000000) translate(0.000000, -0.000000)">
                    <g id="Page-1" transform="translate(0.000000, 0.000000)">
                        <path d="M7.27201127,6.2709811 C6.99573225,6.3705017 6.75418942,6.491126 6.56249997,6.63681 C6.24763621,6.8761065 6.02160117,7.2962328 5.86905187,7.82431 L5.86905187,7.82431 L5,7.82431 L5,7.041771 C5,6.4901981 4.55628335,6.04306 4.00019251,6.04306 L0.999807492,6.04306 C0.447629061,6.04306 -3.55271368e-15,6.4885227 -3.55271368e-15,7.041771 L-3.55271368e-15,14.544349 C-3.55271368e-15,15.0959219 0.443716645,15.54306 0.999807492,15.54306 L4.00019251,15.54306 C4.55237094,15.54306 5,15.0975973 5,14.544349 L5,13.76181 L6.13920029,13.76181 C6.26676336,14.1504126 6.41052567,14.459934 6.56249996,14.6524348 C7.49999989,15.8399345 13.0141159,15.5760456 13.0141159,15.5760456 C13.1266824,15.5741759 13.2370614,15.562928 13.3445162,15.54306 L13.3445162,15.54306 L16.9366027,15.54306 C17.5929364,15.54306 18.125,15.0159705 18.125,14.35556 C18.125,13.6997219 17.5856185,13.16806 16.9366027,13.16806 L15.9683014,13.16806 L17.5616027,13.16806 C18.2179364,13.16806 18.75,12.6409705 18.75,11.98056 C18.75,11.3247219 18.2106185,10.79306 17.5616027,10.79306 L16.2808014,10.79306 L18.1866027,10.79306 C18.8429364,10.79306 19.375,10.2659705 19.375,9.60556 C19.375,8.9497219 18.8356185,8.41806 18.1866027,8.41806 L16.5933014,8.41806 L18.8116027,8.41806 C19.4679364,8.41806 20,7.8909705 20,7.23056 C20,6.5747219 19.4606185,6.04306 18.8116027,6.04306 L13.6883973,6.04306 C13.6572218,6.04306 13.6263267,6.0442492 13.5957556,6.0465855 C13.453862,5.9951796 13.3050278,5.958894 13.1511202,5.9398483 C13.7004881,3.7779189 14.2105263,2.32430991 14.2105263,2.32430991 C14.2105263,2.32430991 14.7368421,0.82431003 13.4375,0.10556 C12.1052632,-0.17569 11.8914474,0.73056 11.5789474,1.32431 C11.2664474,1.91806 10.625,3.371185 10,3.964935 C9.4484335,4.48892317 7.6799646,5.9377572 7.27201127,6.2709811 L7.27201127,6.2709811 L7.27201127,6.2709811 Z" id="Rectangle-39" transform="translate(10.000000, 8.052780) rotate(180.000000) translate(-10.000000, -8.052780) "></path>
                    </g>
                </g>
            </g>
        </g>
    </g>
</svg>