<?xml version="1.0" encoding="UTF-8" standalone="no"?>
<svg width="101px" height="21px" viewBox="0 0 101 21" version="1.1" xmlns="http://www.w3.org/2000/svg" xmlns:xlink="http://www.w3.org/1999/xlink" xmlns:sketch="http://www.bohemiancoding.com/sketch/ns">
    <!-- Generator: Sketch 3.0.4 (8053) - http://www.bohemiancoding.com/sketch -->
    <title>livenow-text</title>
    <desc>Created with Sketch.</desc>
    <defs></defs>
    <g id="Page-1" stroke="none" stroke-width="1" fill="none" fill-rule="evenodd" sketch:type="MSPage">
        <g id="livenow-text" sketch:type="MSLayerGroup" transform="translate(0.000000, 1.000000)" fill="#FFFFFF">
            <g id="Page-1" sketch:type="MSShapeGroup">
                <path d="M15.641,4.768 L17.391,4.768 L17.391,13.252 L22.473,13.252 L22.473,14.764 L15.641,14.764 L15.641,4.768 L15.641,4.768 Z M23.677,4.768 L25.427,4.768 L25.427,14.764 L23.677,14.764 L23.677,4.768 L23.677,4.768 Z M26.435,4.768 L28.255,4.768 L30.761,12.678 L30.789,12.678 L33.351,4.768 L35.129,4.768 L31.713,14.764 L29.767,14.764 L26.435,4.768 L26.435,4.768 Z M36.123,4.768 L43.319,4.768 L43.319,6.28 L37.873,6.28 L37.873,8.898 L42.913,8.898 L42.913,10.326 L37.873,10.326 L37.873,13.252 L43.417,13.252 L43.417,14.764 L36.123,14.764 L36.123,4.768 L36.123,4.768 Z M48.765,4.768 L50.613,4.768 L55.177,12.132 L55.205,12.132 L55.205,4.768 L56.871,4.768 L56.871,14.764 L55.023,14.764 L50.473,7.414 L50.431,7.414 L50.431,14.764 L48.765,14.764 L48.765,4.768 L48.765,4.768 Z M63.199,5.958 C62.6669973,5.958 62.2073353,6.06533226 61.82,6.28 C61.4326647,6.49466774 61.1176679,6.78166487 60.875,7.141 C60.6323321,7.50033513 60.4526672,7.90866438 60.336,8.366 C60.2193327,8.82333562 60.161,9.28999762 60.161,9.766 C60.161,10.2420024 60.2193327,10.7086644 60.336,11.166 C60.4526672,11.6233356 60.6323321,12.0316649 60.875,12.391 C61.1176679,12.7503351 61.4326647,13.0373323 61.82,13.252 C62.2073353,13.4666677 62.6669973,13.574 63.199,13.574 C63.7310027,13.574 64.1906647,13.4666677 64.578,13.252 C64.9653353,13.0373323 65.2803321,12.7503351 65.523,12.391 C65.7656679,12.0316649 65.9453327,11.6233356 66.062,11.166 C66.1786672,10.7086644 66.237,10.2420024 66.237,9.766 C66.237,9.28999762 66.1786672,8.82333562 66.062,8.366 C65.9453327,7.90866438 65.7656679,7.50033513 65.523,7.141 C65.2803321,6.78166487 64.9653353,6.49466774 64.578,6.28 C64.1906647,6.06533226 63.7310027,5.958 63.199,5.958 L63.199,5.958 L63.199,5.958 Z M63.199,4.53 C63.9456704,4.53 64.6153304,4.6699986 65.208,4.95 C65.8006696,5.2300014 66.3023313,5.60799762 66.713,6.084 C67.1236687,6.56000238 67.4386656,7.11533016 67.658,7.75 C67.8773344,8.38466984 67.987,9.05666312 67.987,9.766 C67.987,10.4846703 67.8773344,11.1613302 67.658,11.796 C67.4386656,12.4306698 67.1236687,12.9859976 66.713,13.462 C66.3023313,13.9380024 65.8006696,14.3136653 65.208,14.589 C64.6153304,14.8643347 63.9456704,15.002 63.199,15.002 C62.4523296,15.002 61.7826696,14.8643347 61.19,14.589 C60.5973304,14.3136653 60.0956687,13.9380024 59.685,13.462 C59.2743313,12.9859976 58.9593344,12.4306698 58.74,11.796 C58.5206656,11.1613302 58.411,10.4846703 58.411,9.766 C58.411,9.05666312 58.5206656,8.38466984 58.74,7.75 C58.9593344,7.11533016 59.2743313,6.56000238 59.685,6.084 C60.0956687,5.60799762 60.5973304,5.2300014 61.19,4.95 C61.7826696,4.6699986 62.4523296,4.53 63.199,4.53 L63.199,4.53 L63.199,4.53 Z M68.603,4.768 L70.381,4.768 L72.187,12.412 L72.215,12.412 L74.231,4.768 L76.023,4.768 L77.983,12.412 L78.011,12.412 L79.873,4.768 L81.651,4.768 L78.893,14.764 L77.115,14.764 L75.113,7.12 L75.085,7.12 L73.041,14.764 L71.235,14.764 L68.603,4.768 L68.603,4.768 Z M82.743,13.014 L84.619,13.014 L84.619,14.764 L82.743,14.764 L82.743,13.014 L82.743,13.014 Z M82.813,4.768 L84.563,4.768 L84.563,7.652 L84.101,11.978 L83.275,11.978 L82.813,7.652 L82.813,4.768 L82.813,4.768 Z" id="LIVE-NOW!-text"></path>
            </g>
        </g>
    </g>
</svg>