<?xml version="1.0" encoding="UTF-8" standalone="no"?>
<svg width="142px" height="37px" viewBox="0 0 142 37" version="1.1" xmlns="http://www.w3.org/2000/svg" xmlns:xlink="http://www.w3.org/1999/xlink" xmlns:sketch="http://www.bohemiancoding.com/sketch/ns">
    <!-- Generator: Sketch 3.1.1 (8761) - http://www.bohemiancoding.com/sketch -->
    <title>logo</title>
    <desc>Created with Sketch.</desc>
    <defs></defs>
    <g id="Page-1" stroke="none" stroke-width="1" fill="none" fill-rule="evenodd" sketch:type="MSPage">
        <g id="Imported-Layers" sketch:type="MSLayerGroup" transform="translate(2.000000, 4.500000)" fill="#FFFFFF">
            <g id="Group" transform="translate(35.000000, 2.500000)" sketch:type="MSShapeGroup">
                <path d="M25.231,1.085 L21.375,25.039 L19.23,25.039 L19.368,24.182 L1.798,24.182 L1.661,25.039 L-0.484,25.039 L3.373,1.085 L25.231,1.085 L25.231,1.085 Z M19.72,22 L22.74,3.24 L5.17,3.24 L2.149,22 L19.72,22 L19.72,22 Z M11.321,18.463 C9.909,18.794 7.724,19.21 4.763,19.733 C4.557,20.038 4.352,20.176 4.195,20.176 C4.038,20.176 3.977,20.066 4.018,19.817 L3.907,17.579 C6.505,17.358 9.099,16.999 11.637,16.501 L11.321,18.463 L11.321,18.463 Z M12.4,9.815 L11.443,15.755 L4.802,15.755 L5.758,9.815 L12.4,9.815 L12.4,9.815 Z M13.897,6.362 C14.013,5.478 14.156,4.594 14.307,3.655 L16.197,4.097 C16.449,4.152 16.562,4.262 16.535,4.428 C16.504,4.622 16.364,4.842 16.119,5.064 C16.048,5.505 15.978,5.948 15.937,6.362 L18.996,6.362 C18.483,5.644 17.997,5.091 17.52,4.649 L19.061,3.35 C19.657,3.875 20.235,4.511 20.79,5.285 L19.414,6.362 L21.322,6.362 L21.011,8.296 L15.703,8.296 C15.47,10.396 15.438,12.22 15.555,13.766 C15.58,14.098 15.636,14.402 15.695,14.679 C15.7,14.65 15.731,14.623 15.731,14.623 C16.746,13.186 17.58,11.584 18.23,9.815 L20.02,10.396 C20.215,10.478 20.333,10.561 20.315,10.672 C20.288,10.838 20.126,11.032 19.834,11.225 C18.762,13.656 17.649,15.535 16.503,16.806 C16.437,16.888 16.376,16.944 16.342,16.999 C16.433,17.248 16.532,17.44 16.636,17.607 C16.879,18.049 17.135,18.242 17.37,18.242 C17.58,18.242 18.044,17.468 18.773,15.866 L20.179,17.358 C18.777,19.899 17.713,21.143 17.008,21.143 C16.433,21.143 15.781,20.645 15.078,19.651 C14.887,19.375 14.731,19.043 14.575,18.711 C13.545,19.596 12.365,20.424 10.976,21.254 L9.556,19.844 C10.787,19.182 11.839,18.491 12.74,17.772 C13.129,17.468 13.522,17.137 13.893,16.778 C13.67,15.893 13.507,14.955 13.415,13.904 C13.333,12.467 13.4,10.588 13.664,8.296 L5.297,8.296 L5.609,6.362 L13.897,6.362 L13.897,6.362 Z M10.171,11.64 L7.399,11.64 L7.035,13.904 L9.807,13.904 L10.171,11.64 L10.171,11.64 Z" id="Fill-1"></path>
                <path d="M42.482,0.56 C42.726,0.67 42.833,0.809 42.808,0.974 C42.78,1.141 42.606,1.251 42.278,1.333 C43.888,2.384 45.388,3.13 46.834,3.572 C48.087,4.068 49.79,4.538 51.971,4.953 L49.968,7.329 C47.748,6.665 45.85,5.948 44.258,5.119 C42.905,4.428 41.583,3.544 40.323,2.44 C38.938,3.24 37.62,3.958 36.337,4.622 C34.718,5.423 32.318,6.362 29.111,7.44 L27.557,5.727 C30.21,5.009 32.591,4.179 34.707,3.212 C36.654,2.329 38.671,1.168 40.776,-0.213 L42.482,0.56 L42.482,0.56 Z M48.897,8.296 L47.714,15.645 L45.465,15.645 L45.567,15.01 L31.056,15.01 L30.954,15.645 L28.705,15.645 L29.889,8.296 L48.897,8.296 L48.897,8.296 Z M45.554,16.391 L44.162,25.039 L41.809,25.039 L41.933,24.265 L31.815,24.265 L31.672,25.149 L29.319,25.149 L30.729,16.391 L45.554,16.391 L45.554,16.391 Z M33.778,13.048 C33.641,12.274 33.469,11.557 33.262,10.893 L35.163,10.451 C35.434,11.362 35.637,12.22 35.765,13.048 L37.412,13.048 L37.861,10.257 L31.822,10.257 L31.372,13.048 L33.778,13.048 L33.778,13.048 Z M42.209,22.552 L42.417,21.254 L32.3,21.254 L32.091,22.552 L42.209,22.552 L42.209,22.552 Z M42.676,19.651 L42.921,18.132 L32.802,18.132 L32.557,19.651 L42.676,19.651 L42.676,19.651 Z M44.466,5.285 L44.19,6.997 L34.804,6.997 L35.08,5.285 L44.466,5.285 L44.466,5.285 Z M41.072,13.048 L42.823,10.451 L44.216,11.225 C44.407,11.335 44.494,11.445 44.476,11.557 C44.441,11.776 44.283,11.944 44,12.081 L43.216,13.048 L45.883,13.048 L46.333,10.257 L39.901,10.257 L39.452,13.048 L41.072,13.048 L41.072,13.048 Z" id="Fill-2"></path>
                <path d="M57.094,19.651 C56.269,21.53 55.248,23.326 53.961,25.149 L51.671,24.265 C53.05,22.524 54.136,20.81 54.934,19.099 L57.094,19.651 L57.094,19.651 Z M62.292,1.168 C62.484,1.278 62.597,1.389 62.579,1.5 C62.535,1.776 62.29,1.997 61.871,2.163 C61.644,2.44 61.446,2.688 61.254,2.909 L76.759,2.909 L76.394,5.174 L74.25,5.174 L73.556,9.484 L76.72,9.484 L76.355,11.75 L73.191,11.75 L72.493,16.087 L75.552,16.087 L75.169,18.463 L52.71,18.463 L53.092,16.087 L56.648,16.087 L57.347,11.75 L53.268,11.75 L53.633,9.484 L57.712,9.484 L58.259,6.085 C57.555,6.721 56.768,7.384 55.894,8.103 L54.554,6.362 C55.804,5.423 56.873,4.456 57.783,3.517 C58.631,2.633 59.516,1.527 60.435,0.202 L62.292,1.168 L62.292,1.168 Z M61.145,16.087 L61.844,11.75 L59.595,11.75 L58.897,16.087 L61.145,16.087 L61.145,16.087 Z M61.71,24.597 L59.294,25.149 C59.43,23.657 59.444,21.944 59.398,19.955 L61.418,19.43 C61.638,21.308 61.759,22.994 61.71,24.597 L61.71,24.597 Z M62.902,5.174 L60.654,5.174 L59.96,9.484 L62.209,9.484 L62.902,5.174 L62.902,5.174 Z M65.643,16.087 L66.341,11.75 L64.092,11.75 L63.394,16.087 L65.643,16.087 L65.643,16.087 Z M67.4,5.174 L65.151,5.174 L64.457,9.484 L66.705,9.484 L67.4,5.174 L67.4,5.174 Z M67.559,24.485 L64.994,25.149 C65.078,23.657 65.013,21.944 64.811,19.955 L66.934,19.43 C67.32,21.254 67.551,22.912 67.559,24.485 L67.559,24.485 Z M70.244,16.087 L70.942,11.75 L68.589,11.75 L67.891,16.087 L70.244,16.087 L70.244,16.087 Z M72.001,5.174 L69.648,5.174 L68.954,9.484 L71.307,9.484 L72.001,5.174 L72.001,5.174 Z M74.197,23.85 L71.827,25.259 C71.039,23.491 70.53,21.944 70.344,20.506 L72.538,19.541 C72.777,20.978 73.331,22.415 74.197,23.85 L74.197,23.85 Z" id="Fill-3"></path>
                <path d="M98.245,16.832 C98.395,16.723 98.543,16.612 98.691,16.501 C98.822,16.501 98.913,16.585 99,16.694 L99.602,17.662 C99.654,17.828 99.675,18.021 99.64,18.242 C99.613,18.408 99.352,18.573 98.849,18.767 C96.774,20.287 94.857,21.475 93.068,22.359 C94.635,22.69 97.049,22.966 100.282,23.186 L98.269,25.453 C95.072,25.011 92.538,24.514 90.701,23.905 C90.404,23.795 90.105,23.713 89.856,23.629 C86.917,24.514 83.21,25.122 78.765,25.453 L77.778,23.299 C80.706,23.299 82.956,23.132 84.521,22.828 C85.484,22.69 86.37,22.552 87.206,22.386 C86.85,22.165 86.542,21.972 86.263,21.75 C85.159,20.978 84.247,19.982 83.553,18.767 L80.573,18.767 L80.885,16.832 L98.245,16.832 L98.245,16.832 Z M85.809,0.864 C86.113,0.919 86.279,1.03 86.252,1.196 C86.221,1.389 85.959,1.555 85.462,1.721 C85.242,2.107 85.002,2.466 84.791,2.798 L86.909,2.798 L88.171,0.643 L89.895,1.141 C90.096,1.196 90.212,1.278 90.195,1.389 C90.169,1.555 90.042,1.693 89.837,1.831 L89.131,2.798 L91.615,2.798 L91.304,4.732 L88.532,4.732 L88.217,6.693 L89.864,6.693 L89.673,6.583 C91.714,4.622 93.359,2.522 94.552,0.312 L96.633,0.864 C96.938,0.919 97.103,1.03 97.077,1.196 C97.045,1.389 96.783,1.555 96.286,1.721 C96.01,2.135 95.765,2.522 95.494,2.909 L97.743,2.909 L98.891,0.643 L100.615,1.141 C100.815,1.196 100.933,1.278 100.916,1.389 C100.888,1.555 100.762,1.693 100.557,1.831 L99.913,2.909 L102.919,2.909 L102.608,4.842 L99.234,4.842 L98.973,6.473 L101.953,6.473 L101.659,8.296 L98.679,8.296 L98.398,10.036 L101.379,10.036 L101.086,11.859 L98.104,11.859 L97.807,13.711 L101.493,13.711 L101.182,15.645 L91.063,15.645 L92.514,6.638 C92.195,6.997 91.853,7.329 91.539,7.661 L90.508,7.081 L90.277,8.517 L87.923,8.517 L87.643,10.257 L89.996,10.257 L89.702,12.081 L87.35,12.081 L87.087,13.711 L89.963,13.711 L89.652,15.645 L80.448,15.645 L81.903,6.61 C81.482,7.107 81.071,7.549 80.661,7.992 L78.795,6.914 C80.85,4.87 82.513,2.659 83.727,0.312 L85.809,0.864 L85.809,0.864 Z M85.31,12.081 L83.062,12.081 L82.799,13.711 L85.048,13.711 L85.31,12.081 L85.31,12.081 Z M85.884,8.517 L83.635,8.517 L83.355,10.257 L85.604,10.257 L85.884,8.517 L85.884,8.517 Z M86.493,4.732 L84.245,4.732 L83.929,6.693 L86.178,6.693 L86.493,4.732 L86.493,4.732 Z M88.157,20.701 C88.736,21.004 89.424,21.281 90.19,21.558 C90.521,21.447 90.832,21.308 91.141,21.171 C92.346,20.674 93.808,19.872 95.502,18.767 L85.829,18.767 C86.415,19.512 87.2,20.148 88.157,20.701 L88.157,20.701 Z M96.065,11.859 L93.739,11.859 L93.44,13.711 L95.768,13.711 L96.065,11.859 L96.065,11.859 Z M96.64,8.296 L94.313,8.296 L94.032,10.036 L96.359,10.036 L96.64,8.296 L96.64,8.296 Z M97.195,4.842 L94.868,4.842 L94.606,6.473 L96.934,6.473 L97.195,4.842 L97.195,4.842 Z" id="Fill-4"></path>
            </g>
            <g id="Fill-5-+-Fill-6" sketch:type="MSShapeGroup">
                <path d="M12.623,14.108 L12.623,3.849 L0.945,-0.234 L-0.343,29.561 L12.623,27.584 L12.623,15.688 L5.763,15.688 L5.877,11.387 L8.21,11.758 L8.21,13.664 L12.623,14.108" id="Fill-5"></path>
                <path d="M27.625,-0.234 L15.95,3.849 L15.95,14.112 L20.385,13.665 L20.385,11.758 L22.717,11.387 L22.831,15.688 L15.95,15.688 L15.95,27.584 L28.914,29.561 L27.625,-0.234" id="Fill-6"></path>
            </g>
        </g>
    </g>
</svg>