<?xml version="1.0" encoding="UTF-8" standalone="no"?>
<svg width="138px" height="36px" viewBox="0 0 138 36" version="1.1" xmlns="http://www.w3.org/2000/svg" xmlns:xlink="http://www.w3.org/1999/xlink" xmlns:sketch="http://www.bohemiancoding.com/sketch/ns">
    <!-- Generator: Sketch 3.1 (8751) - http://www.bohemiancoding.com/sketch -->
    <title>logo</title>
    <desc>Created with Sketch.</desc>
    <defs></defs>
    <g id="Page-1" stroke="none" stroke-width="1" fill="none" fill-rule="evenodd" sketch:type="MSPage">
        <g id="logo" sketch:type="MSLayerGroup" transform="translate(0.000000, 6.000000)">
            <g id="Page-1" sketch:type="MSShapeGroup">
                <g id="logo" transform="translate(30.000000, 0.500000)" fill="#FFFFFF">
                    <g id="Page-1">
                        <g id="cclogo">
                            <g id="Group" transform="translate(0.127389, -0.330189)">
                                <path d="M22.7828195,24.9442642 L19.4939448,24.9442642 L19.6430446,23.8795472 L3.41596603,23.8795472 L3.26686624,24.9442642 L-0.0220084926,24.9442642 L3.33599151,0.947349057 L26.1408195,0.947349057 L22.7828195,24.9442642 L22.7828195,24.9442642 Z M20.0323779,21.094783 L20.5023057,17.7368774 C20.0035499,18.7741981 19.5237028,19.4840094 19.0277367,19.9207925 C18.586017,20.3575755 18.0934607,20.5761226 17.5770361,20.5761226 C16.761482,20.5761226 15.9803355,20.1393396 15.2401062,19.2109811 C15.1235541,19.0746226 15.0066921,18.9382642 14.920518,18.7741981 C14.1418514,19.4840094 13.3200977,20.1119434 12.4552569,20.658 L11.0061062,18.5830472 C9.12391507,19.0198302 7.06286624,19.3747358 4.85767728,19.593283 L4.80870064,16.8362264 C7.70514225,16.7269528 10.3991677,16.3172547 12.8284713,15.6622358 L12.6604628,16.8633113 C13.0246879,16.590283 13.4239406,16.2624623 13.7962251,15.9352642 C13.7060212,15.6077547 13.6474352,15.2528491 13.6387558,14.9250283 C13.4062718,13.4780094 13.4400594,11.2940943 13.6818429,8.40036792 L6.20732484,8.40036792 L6.56256051,5.86154717 L13.928586,5.86154717 C14.0005011,5.15173585 14.1000042,4.44192453 14.2032272,3.7050283 L6.23925265,3.7050283 L3.80591932,21.0950943 L20.0323779,21.0950943 L20.0323779,21.094783 L20.0323779,21.094783 Z M13.1638684,9.57404717 L12.3424246,15.4436887 L5.65587261,15.4436887 L6.47731635,9.57404717 L13.1638684,9.57404717 L13.1638684,9.57404717 Z M10.3108238,11.7037925 L8.73458174,11.7037925 L8.5089172,13.3142547 L10.0854692,13.3142547 L10.3108238,11.7037925 L10.3108238,11.7037925 Z M21.3349087,4.98766981 L20.4245011,5.86123585 L21.5388747,5.86123585 L21.1836391,8.4000566 L16.6715881,8.4000566 C16.5206285,10.2564623 16.4812611,11.7034811 16.5494565,12.7681981 C17.3002251,11.6763962 18.0234055,10.3931321 18.6607219,8.94642453 L20.9582845,10.0111415 C19.7062803,12.7411132 18.4917834,14.8157547 17.3070446,16.2898585 C17.5333291,16.8088302 17.798051,17.0544623 18.0699023,17.0544623 C18.1783949,17.0544623 18.3253248,16.7817453 18.4911635,16.1808962 C18.4911635,16.1808962 18.6064756,15.7441132 18.8994055,14.8157547 L20.7543185,15.9352642 L22.4657113,3.70471698 L19.9923907,3.70471698 C20.4787473,4.11410377 20.9337962,4.55088679 21.3349087,4.98766981 L21.3349087,4.98766981 L21.3349087,4.98766981 Z M16.9180212,5.86123585 L18.8749172,5.86123585 C18.4973631,5.45184906 18.1430573,5.06954717 17.7617834,4.6875566 L18.7961826,3.70471698 L17.1650743,3.70471698 C17.0584416,4.46900943 16.9555287,5.20621698 16.9180212,5.86123585 L16.9180212,5.86123585 L16.9180212,5.86123585 Z" id="Shape"></path>
                                <path d="M43.6918174,0.401292453 C46.1933461,2.33988679 49.4586624,3.8684717 53.4607983,4.98766981 L51.845189,8.18182075 C51.5339703,8.07254717 51.2776178,7.96327358 51.0212654,7.85431132 L50.0470021,14.8157547 L29.2533163,14.8157547 L30.2275796,7.85431132 C29.9132611,7.96358491 29.5989427,8.07285849 29.3119023,8.18182075 L28.5084374,4.98766981 C32.7889342,3.92326415 36.4820212,2.39436792 39.6419448,0.401292453 L41.6803652,0.401292453 L43.6918174,0.401292453 L43.6918174,0.401292453 Z M47.5696518,24.9442642 L44.1719745,24.9442642 L44.2789172,24.1799717 L32.2923482,24.1799717 L32.1854055,24.9442642 L28.7877282,24.9442642 L30.0865393,15.6622358 L48.8684628,15.6622358 L47.5696518,24.9442642 L47.5696518,24.9442642 Z M49.990896,7.44492453 C48.4983482,6.84438679 47.1421911,6.24384906 45.9289342,5.58851887 L45.7875839,6.59875472 L35.594862,6.59875472 L35.7207134,5.69748113 C34.3282887,6.32541509 32.8887473,6.89886792 31.3720212,7.44492453 L49.990896,7.44492453 L49.990896,7.44492453 Z M44.5919958,21.9412642 L44.7259066,20.9858208 L32.7390276,20.9858208 L32.6051168,21.9412642 L44.5919958,21.9412642 L44.5919958,21.9412642 Z M33.9178769,10.2293774 L35.6522081,9.68332075 L33.2604119,9.68332075 L32.8555796,12.5770472 L34.7582293,12.5770472 C34.5272951,11.7037925 34.2532739,10.9391887 33.9178769,10.2293774 L33.9178769,10.2293774 L33.9178769,10.2293774 Z M45.0082972,18.9653491 L45.1422081,18.0099057 L33.1553291,18.0099057 L33.0214183,18.9653491 L45.0082972,18.9653491 L45.0082972,18.9653491 Z M38.7783439,9.68332075 L36.5226285,9.68332075 C37.0675711,10.4479245 37.4578344,11.1574245 37.7467346,11.8127547 L36.0629299,12.5773585 L38.3732017,12.5773585 L38.7783439,9.68332075 L38.7783439,9.68332075 Z M43.7634225,4.35973585 C42.8576645,3.84107547 42.0641189,3.29501887 41.3524076,2.74896226 C40.456569,3.32210377 39.5105138,3.86816038 38.5173418,4.35973585 L43.7634225,4.35973585 L43.7634225,4.35973585 Z M42.2975329,11.9220283 C42.9872357,11.2670094 43.5796051,10.5294906 44.0786709,9.68332075 L41.9584161,9.68332075 L41.5532739,12.5770472 L44.4890828,12.5770472 L42.2975329,11.9220283 L42.2975329,11.9220283 Z M47.4763482,9.68332075 L44.9484713,9.68332075 L46.7748662,10.2293774 C46.4503185,10.9936698 45.9586921,11.7856698 45.304327,12.5773585 L47.0715159,12.5773585 L47.4763482,9.68332075 L47.4763482,9.68332075 Z" id="Shape"></path>
                                <path d="M60.2601826,19.7025566 C59.1817665,21.7771981 57.7843822,23.6065189 56.0872484,25.2443774 L53.231414,22.9237925 C55.0689682,21.4496887 56.4164459,19.9755849 57.3259236,18.528566 L60.2601826,19.7025566 L60.2601826,19.7025566 Z M65.0505945,0.619528302 C64.6404926,1.22037736 64.2338004,1.79351887 63.8041699,2.33957547 L80.0854947,2.33957547 L79.6688832,5.31517925 L77.7662335,5.31517925 L77.2888662,8.72756604 L79.3000085,8.72756604 L78.898896,11.5942075 L76.8874437,11.5942075 L76.3641996,15.3344151 L79.0278471,15.3344151 L78.6230149,18.2281415 L54.6219788,18.2281415 L55.027121,15.3344151 L57.9895881,15.3344151 L58.5128323,11.5942075 L56.2840849,11.5942075 L56.6855074,8.72756604 L58.9139448,8.72756604 L59.1851762,6.7889717 C58.6427134,7.17127358 58.0996306,7.55357547 57.5646072,7.88108491 L56.0398217,4.98704717 C58.4365775,3.7859717 60.3510064,2.14811321 61.7248323,0.100556604 L65.0505945,0.619528302 L65.0505945,0.619528302 Z M63.1002081,15.3344151 L63.6234522,11.5942075 L61.5031975,11.5942075 L60.9799533,15.3344151 L63.1002081,15.3344151 L63.1002081,15.3344151 Z M65.5044034,23.9888208 L61.5992909,24.5074811 C61.7738089,22.8696226 61.6612866,21.1495755 61.2688535,19.2931698 L64.5884161,19.074934 C65.0499745,20.4397642 65.3370149,22.077934 65.5044034,23.9888208 L65.5044034,23.9888208 L65.5044034,23.9888208 Z M64.502242,5.31549057 L62.3822972,5.31549057 L61.9049299,8.72787736 L64.0248747,8.72787736 L64.502242,5.31549057 L64.502242,5.31549057 Z M68.1832399,15.3344151 L68.7064841,11.5942075 L66.5865393,11.5942075 L66.0629851,15.3344151 L68.1832399,15.3344151 L68.1832399,15.3344151 Z M71.3977197,23.4427642 L67.6606157,24.5071698 C67.6262081,23.0056698 67.3583864,21.4222925 66.8379321,19.7025566 L70.1370361,18.8560755 C70.8316985,20.4942453 71.2430403,22.0228302 71.3977197,23.4427642 L71.3977197,23.4427642 L71.3977197,23.4427642 Z M69.5852739,5.31549057 L67.4650191,5.31549057 L66.9876518,8.72787736 L69.1075966,8.72787736 L69.5852739,5.31549057 L69.5852739,5.31549057 Z M73.4020425,15.3344151 L73.9252866,11.5942075 L71.6965393,11.5942075 L71.1732951,15.3344151 L73.4020425,15.3344151 L73.4020425,15.3344151 Z M74.8040764,5.31549057 L72.5753291,5.31549057 L72.0976518,8.72787736 L74.3263992,8.72787736 L74.8040764,5.31549057 L74.8040764,5.31549057 Z M78.1468875,23.7702736 L74.1469214,25.1625 C73.773087,22.9785849 73.2172951,21.1221792 72.4798556,19.593283 L75.9023312,18.6378396 C76.6509299,19.8933962 77.4199873,21.5860472 78.1468875,23.7702736 L78.1468875,23.7702736 L78.1468875,23.7702736 Z" id="Shape"></path>
                                <path d="M103.51214,15.4436887 L103.213941,17.5731226 C101.780599,18.8834717 99.9582335,20.0571509 97.8014013,21.094783 C99.8760892,21.4226038 102.458212,21.6137547 105.498794,21.6408396 L103.852497,25.0532264 C99.5992781,24.5616509 96.1380552,23.8518396 93.4449597,22.8963962 C90.2555881,23.933717 86.2382633,24.6709245 81.3467983,25.0532264 L80.562242,21.531566 C84.0414437,21.531566 86.9998811,21.3678113 89.3907473,20.9858208 C87.8548025,20.1119434 86.5287134,19.1020189 85.3768323,18.0099057 L82.8759236,18.0099057 L83.234879,15.4436887 L103.51214,15.4436887 L103.51214,15.4436887 Z M89.5342675,0.729113208 C89.2949639,1.27516981 89.0321019,1.79351887 88.8076773,2.23061321 L90.6560807,2.23061321 C90.5113206,1.71195283 90.3625308,1.22037736 90.1864628,0.729113208 L93.1284713,0.101179245 C93.3628153,0.756198113 93.5351635,1.46600943 93.6458259,2.23061321 L95.7933588,2.23061321 L95.4951592,4.36004717 L92.7502972,4.36004717 L92.5860085,5.53403774 L94.7059533,5.53403774 L94.4080637,7.6634717 L92.2878089,7.6634717 L92.1083312,8.94673585 L94.4458811,8.94673585 L94.1476815,11.0761698 L91.8101316,11.0761698 L91.6309639,12.3591226 L94.4849384,12.3591226 L94.1715499,14.5975189 L83.6796985,14.5975189 L84.5696476,8.23661321 C84.154896,8.67339623 83.7444841,9.08309434 83.337482,9.46539623 L82.6973758,6.27124528 C84.4251975,4.60599057 85.8266115,2.55843396 86.8768195,0.101490566 L89.5342675,0.729113208 L89.5342675,0.729113208 Z M86.9555541,12.3588113 L88.8582038,12.3588113 L89.0376815,11.0758585 L87.1350318,11.0758585 L86.9555541,12.3588113 L86.9555541,12.3588113 Z M89.5153588,7.66316038 L87.6123992,7.66316038 L87.4329214,8.94642453 L89.3355711,8.94642453 L89.5153588,7.66316038 L89.5153588,7.66316038 Z M89.9778471,4.35973585 L88.0748875,4.35973585 L87.9105987,5.53372642 L89.8135584,5.53372642 L89.9778471,4.35973585 L89.9778471,4.35973585 Z M93.6324968,20.0026698 C95.1110955,19.5388019 96.5887643,18.8834717 98.0701529,18.0095943 L89.9428195,18.0095943 C91.0556433,18.8015943 92.2955584,19.4566132 93.6324968,20.0026698 L93.6324968,20.0026698 L93.6324968,20.0026698 Z M101.113214,0.729113208 C100.873911,1.27516981 100.669015,1.76643396 100.44118,2.23061321 L102.180471,2.23061321 C102.028272,1.76643396 101.821206,1.30256604 101.61445,0.838075472 L104.695949,0.183056604 C104.938042,0.78359434 105.141699,1.46632075 105.279329,2.23061321 L107.806896,2.23061321 L107.509006,4.36004717 L104.627754,4.36004717 L104.463775,5.53403774 L106.801325,5.53403774 L106.503125,7.6634717 L104.165575,7.6634717 L103.986098,8.94673585 L106.323648,8.94673585 L106.025758,11.0761698 L103.688208,11.0761698 L103.50842,12.3591226 L106.498476,12.3591226 L106.184777,14.5975189 L95.2307473,14.5975189 L96.0714098,8.59151887 C95.8159873,8.86423585 95.5602548,9.13757547 95.3395499,9.35581132 L94.8045265,6.38020755 C96.4002972,4.6875566 97.6730701,2.58551887 98.6460934,0.101179245 L101.113214,0.729113208 L101.113214,0.729113208 Z M98.534811,12.3588113 L100.655066,12.3588113 L100.834544,11.0758585 L98.7142887,11.0758585 L98.534811,12.3588113 L98.534811,12.3588113 Z M101.312221,7.66316038 L99.191966,7.66316038 L99.0121783,8.94642453 L101.132433,8.94642453 L101.312221,7.66316038 L101.312221,7.66316038 Z M101.774089,4.35973585 L99.6538344,4.35973585 L99.4898556,5.53372642 L101.61011,5.53372642 L101.774089,4.35973585 L101.774089,4.35973585 Z" id="Shape"></path>
                            </g>
                        </g>
                    </g>
                </g>
                <g id="Group-13" transform="translate(0.000000, 0.500000)" fill="#FEFEFE">
                    <path d="M1.03356098,-0.0163645418 L-0.0255902439,24.9900398 L10.6326537,23.33001 L10.6326537,13.3463446 L4.99373659,13.3463446 L5.0876878,9.7365239 L7.00477073,10.0483167 L7.00477073,11.6479183 L10.6326537,12.0205378 L10.6326537,3.41057769 L1.03356098,-0.0163645418 L1.03356098,-0.0163645418 Z" id="Fill-10"></path>
                    <path d="M22.9662146,-0.0163645418 L13.3676488,3.41057769 L13.3676488,12.0238347 L17.0141366,11.6491036 L17.0141366,10.0483167 L18.9310829,9.7365239 L19.0249171,13.3463446 L13.3676488,13.3463446 L13.3676488,23.33001 L24.0256293,24.9900398 L22.9662146,-0.0163645418 L22.9662146,-0.0163645418 Z" id="Fill-12"></path>
                </g>
            </g>
        </g>
    </g>
</svg>