<?xml version="1.0" encoding="UTF-8" standalone="no"?>
<svg width="24px" height="24px" viewBox="0 0 24 24" version="1.1" xmlns="http://www.w3.org/2000/svg" xmlns:xlink="http://www.w3.org/1999/xlink" xmlns:sketch="http://www.bohemiancoding.com/sketch/ns">
    <!-- Generator: Sketch 3.1.1 (8761) - http://www.bohemiancoding.com/sketch -->
    <title>member_legislator</title>
    <desc>Created with Sketch.</desc>
    <defs></defs>
    <g id="Page-1" stroke="none" stroke-width="1" fill="none" fill-rule="evenodd" sketch:type="MSPage">
        <g id="Oval-4-+-Oval-5-+-Oval-3" sketch:type="MSLayerGroup">
            <circle id="Oval-4" fill="#FFFFFF" sketch:type="MSShapeGroup" cx="12" cy="12" r="12"></circle>
            <path d="M16.9143128,14.3817791 C18.231087,15.2506811 19.320531,16.4677132 20.0669774,17.9107819 L20.0669774,17.9107819 C18.4576385,20.1034833 15.9758363,21.6159074 13.1331141,21.9365111 L13.1331141,21.9365111 L15.3094296,16.3494235 L14.8185547,15.8585486 C15.6116995,15.5055319 16.3225352,15.0010257 16.9143128,14.3817791 L16.9143128,14.3817791 Z M7.34884507,14.3817791 C5.96882989,15.2924121 4.83850529,16.5854176 4.09101761,18.1202523 C5.75562225,20.2682277 8.27589155,21.7197508 11.1405903,21.9635865 L8.95372834,16.3494235 L9.44460323,15.8585486 C8.65145841,15.5055319 7.94062269,15.0010257 7.34884507,14.3817791 L7.34884507,14.3817791 Z M12.1315789,15.0208333 C15.008062,15.0208333 17.3399123,12.6889831 17.3399123,9.8125 C17.3399123,6.93601693 15.008062,4.60416667 12.1315789,4.60416667 C9.25509588,4.60416667 6.92324561,6.93601693 6.92324561,9.8125 C6.92324561,12.6889831 9.25509588,15.0208333 12.1315789,15.0208333 Z M12.1315789,15.1715729 L10.2173654,17.0857864 L12.1315789,22 L14.0457925,17.0857864 L12.1315789,15.1715729 Z" id="Oval-2" fill="#8C1006" sketch:type="MSShapeGroup"></path>
        </g>
    </g>
</svg>