<?xml version="1.0" encoding="UTF-8" standalone="no"?>
<svg width="24px" height="24px" viewBox="0 0 24 24" version="1.1" xmlns="http://www.w3.org/2000/svg" xmlns:xlink="http://www.w3.org/1999/xlink" xmlns:sketch="http://www.bohemiancoding.com/sketch/ns">
    <!-- Generator: Sketch 3.1.1 (8761) - http://www.bohemiancoding.com/sketch -->
    <title>member_normal</title>
    <desc>Created with Sketch.</desc>
    <defs></defs>
    <g id="Page-1" stroke="none" stroke-width="1" fill="none" fill-rule="evenodd" sketch:type="MSPage">
        <g id="Oval-4-+-Oval-5-+-Oval-2" sketch:type="MSLayerGroup">
            <circle id="Oval-4" fill="#FFFFFF" sketch:type="MSShapeGroup" cx="12" cy="12" r="12"></circle>
            <g id="Oval-5-+-Oval-2" transform="translate(4.000000, 5.000000)" fill="#8C1006" sketch:type="MSShapeGroup">
                <path d="M3.34884507,9.38177908 C1.96882989,10.2924121 0.838505285,11.5854176 0.0910176072,13.1202523 C1.92022156,15.4806237 4.7826761,17 8,17 C11.3115224,17 14.2470911,15.390351 16.0669774,12.9107819 L16.0669774,12.9107819 C15.320531,11.4677132 14.231087,10.2506811 12.9143128,9.38177908 C11.7099406,10.6420556 10.0124363,11.4270833 8.13157895,11.4270833 C6.25072157,11.4270833 4.55321725,10.6420556 3.34884507,9.38177908 L3.34884507,9.38177908 Z M8.13157895,10.0208333 C11.008062,10.0208333 13.3399123,7.68898307 13.3399123,4.8125 C13.3399123,1.93601693 11.008062,-0.395833333 8.13157895,-0.395833333 C5.25509588,-0.395833333 2.92324561,1.93601693 2.92324561,4.8125 C2.92324561,7.68898307 5.25509588,10.0208333 8.13157895,10.0208333 Z" id="Oval-2"></path>
            </g>
        </g>
    </g>
</svg>