<?xml version="1.0" encoding="UTF-8" standalone="no"?>
<svg width="24px" height="24px" viewBox="0 0 24 24" version="1.1" xmlns="http://www.w3.org/2000/svg" xmlns:xlink="http://www.w3.org/1999/xlink" xmlns:sketch="http://www.bohemiancoding.com/sketch/ns">
    <!-- Generator: Sketch 3.1.1 (8761) - http://www.bohemiancoding.com/sketch -->
    <title>member_forget_pw</title>
    <desc>Created with Sketch.</desc>
    <defs></defs>
    <g id="Page-1" stroke="none" stroke-width="1" fill="none" fill-rule="evenodd" sketch:type="MSPage">
        <path d="M18,11 C18,7.6862915 15.3137085,5 12,5 C8.6862915,5 6,7.6862915 6,11 L5.99406028,11 C4.8927712,11 4,11.8958578 4,12.9973917 L4,18.0026083 C4,19.1057373 4.89451376,20 5.99406028,20 L18.0059397,20 C19.1072288,20 20,19.1041422 20,18.0026083 L20,12.9973917 C20,11.8942627 19.1054862,11 18.0059397,11 L18,11 Z M16.2857143,11 C16.2857143,8.63306536 14.3669346,6.71428571 12,6.71428571 C9.63306536,6.71428571 7.71428571,8.63306536 7.71428571,11 L16.2857143,11 Z" id="Rectangle-1" fill="#880013" sketch:type="MSShapeGroup"></path>
    </g>
</svg>