<?xml version="1.0" encoding="UTF-8" standalone="no"?>
<svg width="24px" height="24px" viewBox="0 0 24 24" version="1.1" xmlns="http://www.w3.org/2000/svg" xmlns:xlink="http://www.w3.org/1999/xlink" xmlns:sketch="http://www.bohemiancoding.com/sketch/ns">
    <!-- Generator: Sketch 3.0.4 (8053) - http://www.bohemiancoding.com/sketch -->
    <title>negative-news</title>
    <desc>Created with Sketch.</desc>
    <defs></defs>
    <g id="Element" stroke="none" stroke-width="1" fill="none" fill-rule="evenodd" sketch:type="MSPage">
        <g id="ICON" sketch:type="MSLayerGroup" transform="translate(-3.000000, -91.000000)" fill="#333333">
            <path d="M5.58074232,110.020334 L13.6475392,93.8867398 L16.3974948,93.9768078 L24.4742526,110.130323 L22.9090909,113 L7.09090909,113 L5.58074232,110.020334 Z M14.3821023,105.443182 L14.1548295,102.041193 C14.1122157,101.378311 14.0909091,100.902464 14.0909091,100.613636 C14.0909091,100.220642 14.193891,99.9140636 14.399858,99.693892 C14.6058249,99.4737205 14.8768923,99.3636364 15.2130682,99.3636364 C15.6202672,99.3636364 15.8925183,99.5044967 16.0298295,99.7862216 C16.1671408,100.067946 16.2357955,100.473956 16.2357955,101.004261 C16.2357955,101.316763 16.2192237,101.633995 16.1860795,101.955966 L15.8806818,105.457386 C15.8475377,105.874055 15.7765157,106.193654 15.6676136,106.416193 C15.5587116,106.638732 15.3787891,106.75 15.1278409,106.75 C14.8721578,106.75 14.6946028,106.642283 14.5951705,106.426847 C14.4957381,106.21141 14.4247161,105.883525 14.3821023,105.443182 Z M15.1704545,110.116477 C14.8816273,110.116477 14.6294992,110.022965 14.4140625,109.835938 C14.1986258,109.64891 14.0909091,109.387312 14.0909091,109.051136 C14.0909091,108.757574 14.193891,108.507814 14.399858,108.301847 C14.6058249,108.09588 14.8579531,107.992898 15.15625,107.992898 C15.4545469,107.992898 15.7090425,108.09588 15.9197443,108.301847 C16.1304461,108.507814 16.2357955,108.757574 16.2357955,109.051136 C16.2357955,109.382577 16.1292624,109.642991 15.9161932,109.832386 C15.7031239,110.021781 15.4545469,110.116477 15.1704545,110.116477 Z" id="negetive" sketch:type="MSShapeGroup"></path>
        </g>
    </g>
</svg>