<?xml version="1.0" encoding="UTF-8" standalone="no"?>
<svg width="24px" height="24px" viewBox="0 0 24 24" version="1.1" xmlns="http://www.w3.org/2000/svg" xmlns:xlink="http://www.w3.org/1999/xlink" xmlns:sketch="http://www.bohemiancoding.com/sketch/ns">
    <!-- Generator: Sketch 3.0.4 (8053) - http://www.bohemiancoding.com/sketch -->
    <title>positive-news</title>
    <desc>Created with Sketch.</desc>
    <defs></defs>
    <g id="Element" stroke="none" stroke-width="1" fill="none" fill-rule="evenodd" sketch:type="MSPage">
        <g id="ICON" sketch:type="MSLayerGroup" transform="translate(-3.000000, -49.000000)" fill="#880013">
            <path d="M13.0434783,55.5375444 L15.000209,56.4347826 L17,55.4800236 L17,55.4800236 L17,50.5771909 L13.0434783,50.5771909 L13.0434783,55.5375444 L13.0434783,55.5375444 Z M12,55.0590685 L10.0869565,54.1818627 L10.0869565,50.5771909 L12,50.5771909 L12,55.0590685 L12,55.0590685 Z M18.0434783,54.9818364 L19.7190635,54.1818627 L19.7190635,50.5771909 L18.0434783,50.5771909 L18.0434783,54.9818364 L18.0434783,54.9818364 Z M14.8974348,72.2519531 C19.2652258,72.2519531 22.8060201,68.7111589 22.8060201,64.3433679 C22.8060201,59.9755768 19.2652258,56.4347826 14.8974348,56.4347826 C10.5296438,56.4347826 6.98884955,59.9755768 6.98884955,64.3433679 C6.98884955,68.7111589 10.5296438,72.2519531 14.8974348,72.2519531 Z M14.8974348,69.8185423 C17.9212901,69.8185423 20.3726092,67.3672232 20.3726092,64.3433679 C20.3726092,61.3195125 17.9212901,58.8681935 14.8974348,58.8681935 C11.8735795,58.8681935 9.4222604,61.3195125 9.4222604,64.3433679 C9.4222604,67.3672232 11.8735795,69.8185423 14.8974348,69.8185423 Z M14.8974348,68.6018369 C17.2493223,68.6018369 19.1559038,66.6952553 19.1559038,64.3433679 C19.1559038,61.9914804 17.2493223,60.0848989 14.8974348,60.0848989 C12.5455473,60.0848989 10.6389658,61.9914804 10.6389658,64.3433679 C10.6389658,66.6952553 12.5455473,68.6018369 14.8974348,68.6018369 Z" id="positive" sketch:type="MSShapeGroup"></path>
        </g>
    </g>
</svg>