<?xml version="1.0" encoding="UTF-8" standalone="no"?>
<svg width="64px" height="32px" viewBox="0 0 64 32" version="1.1" xmlns="http://www.w3.org/2000/svg" xmlns:xlink="http://www.w3.org/1999/xlink" xmlns:sketch="http://www.bohemiancoding.com/sketch/ns">
    <!-- Generator: Sketch 3.0.4 (8053) - http://www.bohemiancoding.com/sketch -->
    <title>topic-card-open</title>
    <desc>Created with Sketch.</desc>
    <defs></defs>
    <g id="Page-1" stroke="none" stroke-width="1" fill="none" fill-rule="evenodd" sketch:type="MSPage">
        <g id="Oval-1-+-Rectangle-22-+-Rectangle-23" sketch:type="MSLayerGroup">
            <path d="M64,32 C64,14.326888 49.673112,0 32,0 C14.326888,0 0,14.326888 0,32 L64,32 Z" id="Oval-1" fill="#F3F3F3" sketch:type="MSShapeGroup"></path>
            <g id="Rectangle-22-+-Rectangle-23" transform="translate(32.444444, 19.111111) scale(1, -1) translate(-32.444444, -19.111111) translate(22.222222, 11.555556)" fill="#333333" sketch:type="MSShapeGroup">
                <path d="M9.12820513,7.87844255 L-0.444444444,3.62393162 L-0.444444444,0.136752137 L9.57264957,4.58879392 L19.5897436,0.136752137 L19.5897436,3.62393162 L10.017094,7.87844255 L10.017094,8.27350427 L9.57264957,8.07597341 L9.12820513,8.27350427 L9.12820513,7.87844255 Z" id="Rectangle-22" transform="translate(9.777778, 4.136752) rotate(-180.000000) translate(-9.777778, -4.136752) "></path>
                <path d="M9.12820513,14.9895537 L-0.444444444,10.7350427 L-0.444444444,7.24786325 L9.57264957,11.699905 L19.5897436,7.24786325 L19.5897436,10.7350427 L10.017094,14.9895537 L10.017094,15.3846154 L9.57264957,15.1870845 L9.12820513,15.3846154 L9.12820513,14.9895537 Z" id="Rectangle-23" transform="translate(9.777778, 11.247863) rotate(-180.000000) translate(-9.777778, -11.247863) "></path>
            </g>
        </g>
    </g>
</svg>